<mxfile host="app.diagrams.net" modified="2023-07-12T09:48:21.663Z" agent="Mozilla/5.0 (Macintosh; Intel Mac OS X 10_15_7) AppleWebKit/605.1.15 (KHTML, like Gecko) Version/16.4 Safari/605.1.15" etag="22zjm8VAE0CA4qjYyn9H" version="21.6.2" type="device">
  <diagram id="814oV0oYVunFL0rAsWYE" name="Page-1">
    <mxGraphModel dx="439" dy="272" grid="1" gridSize="10" guides="1" tooltips="1" connect="1" arrows="1" fold="1" page="1" pageScale="1" pageWidth="827" pageHeight="1169" math="0" shadow="0">
      <root>
        <mxCell id="0" />
        <mxCell id="1" parent="0" />
        <mxCell id="hgtoQCEPwnBt9p70s2Xu-11" value="" style="rounded=1;whiteSpace=wrap;html=1;dashed=1;fillColor=none;" parent="1" vertex="1">
          <mxGeometry x="110" y="20" width="560" height="250" as="geometry" />
        </mxCell>
        <mxCell id="hgtoQCEPwnBt9p70s2Xu-1" value="&lt;br&gt;Controller" style="rounded=1;whiteSpace=wrap;html=1;" parent="1" vertex="1">
          <mxGeometry x="160" y="180" width="80" height="55" as="geometry" />
        </mxCell>
        <mxCell id="nXT7cmKq0sEsVXdaDgDs-1" style="edgeStyle=orthogonalEdgeStyle;rounded=0;orthogonalLoop=1;jettySize=auto;html=1;dashed=1;entryX=0;entryY=0.5;entryDx=0;entryDy=0;" edge="1" parent="1" source="hgtoQCEPwnBt9p70s2Xu-9" target="hgtoQCEPwnBt9p70s2Xu-31">
          <mxGeometry relative="1" as="geometry">
            <Array as="points">
              <mxPoint x="80" y="115" />
              <mxPoint x="80" y="80" />
            </Array>
          </mxGeometry>
        </mxCell>
        <mxCell id="nXT7cmKq0sEsVXdaDgDs-27" value="trigger&amp;nbsp;&lt;br&gt;function" style="edgeLabel;html=1;align=center;verticalAlign=middle;resizable=0;points=[];" vertex="1" connectable="0" parent="nXT7cmKq0sEsVXdaDgDs-1">
          <mxGeometry x="0.1256" y="1" relative="1" as="geometry">
            <mxPoint x="24" y="1" as="offset" />
          </mxGeometry>
        </mxCell>
        <mxCell id="nXT7cmKq0sEsVXdaDgDs-2" style="edgeStyle=orthogonalEdgeStyle;rounded=0;orthogonalLoop=1;jettySize=auto;html=1;entryX=0;entryY=0.5;entryDx=0;entryDy=0;dashed=1;" edge="1" parent="1" source="hgtoQCEPwnBt9p70s2Xu-9" target="hgtoQCEPwnBt9p70s2Xu-1">
          <mxGeometry relative="1" as="geometry">
            <Array as="points">
              <mxPoint x="80" y="115" />
              <mxPoint x="80" y="208" />
            </Array>
          </mxGeometry>
        </mxCell>
        <mxCell id="hgtoQCEPwnBt9p70s2Xu-9" value="User" style="shape=umlActor;verticalLabelPosition=bottom;verticalAlign=top;html=1;outlineConnect=0;" parent="1" vertex="1">
          <mxGeometry x="20" y="85" width="30" height="60" as="geometry" />
        </mxCell>
        <mxCell id="hgtoQCEPwnBt9p70s2Xu-25" value="Fission" style="text;html=1;strokeColor=none;fillColor=none;align=center;verticalAlign=middle;whiteSpace=wrap;rounded=0;dashed=1;" parent="1" vertex="1">
          <mxGeometry x="140" y="20" width="50" height="30" as="geometry" />
        </mxCell>
        <mxCell id="hgtoQCEPwnBt9p70s2Xu-31" value="&lt;br&gt;Router" style="rounded=1;whiteSpace=wrap;html=1;" parent="1" vertex="1">
          <mxGeometry x="160" y="52.5" width="80" height="55" as="geometry" />
        </mxCell>
        <mxCell id="hgtoQCEPwnBt9p70s2Xu-33" value="" style="endArrow=classic;html=1;rounded=0;entryX=0;entryY=0.25;entryDx=0;entryDy=0;exitX=1;exitY=0.5;exitDx=0;exitDy=0;dashed=1;" parent="1" source="hgtoQCEPwnBt9p70s2Xu-31" target="hgtoQCEPwnBt9p70s2Xu-32" edge="1">
          <mxGeometry width="50" height="50" relative="1" as="geometry">
            <mxPoint x="370" y="200" as="sourcePoint" />
            <mxPoint x="420" y="150" as="targetPoint" />
          </mxGeometry>
        </mxCell>
        <mxCell id="nXT7cmKq0sEsVXdaDgDs-26" value="ask executor &lt;br&gt;for function" style="edgeLabel;html=1;align=center;verticalAlign=middle;resizable=0;points=[];" vertex="1" connectable="0" parent="hgtoQCEPwnBt9p70s2Xu-33">
          <mxGeometry x="-0.1832" relative="1" as="geometry">
            <mxPoint as="offset" />
          </mxGeometry>
        </mxCell>
        <mxCell id="hgtoQCEPwnBt9p70s2Xu-39" value="" style="group" parent="1" vertex="1" connectable="0">
          <mxGeometry x="360" y="55" width="186" height="80" as="geometry" />
        </mxCell>
        <mxCell id="hgtoQCEPwnBt9p70s2Xu-32" value="&lt;br&gt;&lt;br&gt;" style="rounded=1;whiteSpace=wrap;html=1;" parent="hgtoQCEPwnBt9p70s2Xu-39" vertex="1">
          <mxGeometry y="4" width="186" height="80" as="geometry" />
        </mxCell>
        <mxCell id="hgtoQCEPwnBt9p70s2Xu-34" value="PoolManager" style="rounded=1;whiteSpace=wrap;html=1;dashed=1;" parent="hgtoQCEPwnBt9p70s2Xu-39" vertex="1">
          <mxGeometry x="9" y="40" width="80" height="30" as="geometry" />
        </mxCell>
        <mxCell id="hgtoQCEPwnBt9p70s2Xu-35" value="NewDeploy" style="rounded=1;whiteSpace=wrap;html=1;dashed=1;" parent="hgtoQCEPwnBt9p70s2Xu-39" vertex="1">
          <mxGeometry x="96" y="40" width="80" height="30" as="geometry" />
        </mxCell>
        <mxCell id="nXT7cmKq0sEsVXdaDgDs-19" value="" style="shape=image;verticalLabelPosition=bottom;labelBackgroundColor=default;verticalAlign=top;aspect=fixed;imageAspect=0;image=data:image/png,iVBORw0KGgoAAAANSUhEUgAAAYYAAACBCAMAAADzLO3bAAAAwFBMVEX///9wcHBmLJFtbW1qampoaGhycnJ3d3f39/eJiYnb29tkKZDz8/OOjo6qqqpjJo/r6+tjY2NXAIhhIY78+v1dF4uamppeG4xZC4n39PmxsbHx7PXQ0NDHx8f9+/59fX3j4+OkpKSenp7r5PDFs9TBwcHk3Ovb0OTVyODz7/aymsa7ps20nciOaax5Sp6BWKNwOpiliL3KutiXdbNtNJaDW6Wdfrd0QZuTbrClir3e1eZ6TZ6/q8/Vy9/NwdmtksLXZTR9AAAVH0lEQVR4nO1diXqquhpVBieqWDASZ1ucrUMdW9vdvv9b3UxAgIBibbvv2azvO/tUDAGyyD8nZjIpUqRIkSJFihQpUqRIkSJFihQpUvwMar99AykQXtfHke9A93DcN37pZv5Z2KZuHXxHxoYG33/pbv5ZtCwTPPuO/Elp+AUM3hYt34HuwVyk+uK3MFmbn799Dylahq7Bp9++i38GI9OYsz+n/PEBkCR9zx852eyPxmE/+Ylb+5ewNDVA/rCPhjT2jo8MTeJ1de1oGMyCeoYmTC3Y22Jl6Sb5Y2FJ+pob3SfTWnEfP9HsgJSmg6UZKQ23RWux/MD/b6w1STKIjTT9mGDLqEW9uK5NhvzFRDSQlpnRUToI+0rxdSyAZh7xiP/RIFw7eiAzXhvGCzq8MXRTY5ZsdxrRR4ovw16s3/D7P5V0STLf2NHpDn0C+OWfrxanX7y9fwf0Xf+DlADigb34E4g/gV+8q38UY0yDZjEd/AHJp9+9pf86bCds8b49uMbqytI0sGUfpmukmj3DtTU50bjGaPDnx+7yP47aQZeo63aApgk+2OHpdrc71DKt+eEJ6Yrx0gAvTkhpI0G4x9RNTGC8/sY9/wcxh5pmYLU7NpDk0d/c+N0UWUIDDZiWNUOWrDtlMlMT62s8UVZojhi2qNMUl2K+HZD/Y1cA4BD2gKiDNRru02w7I+7CCWr4GNzgD635dobp2hBFsUPt3hAfBvUrGuOR+DIpYrExTDIH6GzAY3iiswF5zpZlWiYO6GGKnCmykdDEAK/MbNLWaK7MDROsaHd7mDwbUSjc8oH+PzEHzB3uPps7Oi+eDTTOf9CsIFPAQNpa1wgNGvLYRib5Gw4yXayvIdEJm+2MyrCGIZmLi69daA/rxV4vn+/1Hm/+YP9faGnGjon7Wpcd2xxeT5kuFjVsXuwYDVIrs6UTQ9shy2oPwWvX11t3B4xL8xKlek5VZIRsVpbVqnu8XXmsdL5/gqDLPHTuvv0yl6I76gqPtyQ69thbY2Ovr6gewLBawrPs+eCy3FyhrqLxd6GU2PF2XlUURZU71zzL5Sixywy/9zJfAnHWWs4UMNHgQp2oaCSf9g4NX8uEVvNKlofKhr3jkHPf/PJjxKD9M5e5AjNJo37Z3IJwgRTvnk4BE5ukJwkCaGJD6dWiE2OJ/v48wiVTyPZEPDsicJeVfSxklQdyvOodvu/f7tlCl5fd66il881/EM/IUAJYu+6xcWqaduZk4RdfN2gAdTIg8e5MAytmCdtUtTXS4TrN/hwMaMwSXK0YYCErF8nxijdH5PptH5DHUPUuU/6+yyQH1QTIByPeAOJhj/y4HQBgHXTLWnsALJyZO9B5YaA58oRPMsbCnkVo32eDyJEvfPTc8PEC4C+T/3vUNE5CEzN0nFnozDZFw18bb0RDO5oQRwNIrtAietsiJtLkksR0aDIgYFOp0OO+kL/PWvJdpnq+/fdjtt5jn62xRCOpgW5mzewjeM4bnhoSM59qVG9bc9wNNPZnlfcdPxkUJZvLIVWAZbSfhps8nxD8ZXJ/Aw0zQzNJznksIQn04dqm2EU4A0tzZ8MAKRYdR5WeAPHszqCjciw8lqqFQrVaIrKh7o0P0xbfggdOBfW+7zKX44jeY0hkTGszwGpgQl9ya3vmRFc3kEDTfK0dsS/+iY6Bs7qaU8SK3z9oewSp3+g5lLwbUP8Kz+HFkjTLp4Wfoa7pYHne/pweLdQS0nqAhk1E0Ria2Mg6g0f3nWd2qocHhwflWy2YinuZb5xzCWAvoelU400n8zFO9y+Oq9dLSl4ar2/r1Tv2wwcnp/3HYnveYCrGWO0VBQc4lPtvNFe9y8hq+ZftJMffaoycl3ezgxY84kG8uNSihvsY7ZFrt/4IfhdDpEfDfXgU+g/FXvGxfektXIt+BV2m/u2XOYMRgH5ZlBmTgKpuJS13aTF/LjAJZst9pFzzaMgJjdIfCnz/BfH1d+BZNDUi1lfUYbCS1n49s+jG2nf0BPXo0uNzNPw7OEHA0paN1+XyteZF8o4Je2L0SQYmczRqOP3rcB51SkqDi9OM+WdboOvgcDUNXZeGVqb2YlpH5kV/7laR4i2lIQTqDAPbSSSYSYUSS5BKEHkSONbn1FTG+NIpDSHYhAZoZz5Y2j9RwBrhBGhWFIkgEhWEIZsphJSGELq4LFXHVcMDACyoXx4mdYDOMy0S776ChoTXuuu3O81mc9hu9+MN/moJt2t22qWrQ0bkUsNOu5/kpCo5qZ38ohOAhpEMfmsz34gTovGw54cZ6eAZrwmKC0bd1Qm4wFGZHqk7blwT/f3QfED/VkJnV5s9RVFJ8lLFWezisCSeTJ2ijNooCm2dKzfbwXZDeplH9K+wh+rQ6QL9J5eFOetKvf6I7/TR/bLazLP7U3LNpExMN4NblcZvDYNMpz8Dcbl3SZVpDYDHA4XKnOa7HBpehXi494Fzq2U09FkeMnrmcsgBK1QUNdyu6B9J9zKKKM7dD1xKVtWHULPCPfb2URf3LCp1V7/nzlLUC9Or9hJuXT36vgTLSAPzAmwWy+cx9snxh08DGMJqpZI/Ac09KItz3uW95/Cf+nAvyFHgEQpkkzuq8BqoHR+k8i4TjnMX6oJLhUe14ETrFTpvK8Gz1Mtit5opgRf29wLH8+BbbPs47KGum05pTEvTJE0TWUqRNDiptigaCr3IM+U83/AhnNdzG3IDHkNDSRFfSu35W7o0kDRqsMSBPMElPJwArbrAeKeZz/Mh6gi80kwcpD4DTqhqZjIa2BhF0BDDgj9n/aBGtsvydEXT0InkUZb7fEOXBtxxWzhXQ/FjARqW7i7jYVUv2jr+lMiuWMpOZxWUeHGosGgsmgZWpxRBw2M0C1mFkxbDGBZ8aaRIGqJZwDzw8WCPhvtMM+IstX9+8DaSeWTxjCPLfBrnzxLB1jQ/jfODOAMXTQNL8ohpKPGjKwe0vOop6btcTDvfqxlFQymGBdwl19ijQS5HPZZySU3o9OSYp85skC44S9SRMxuWZxrGzAaq58Q0lDkDJNdDtmaxl3NtGaXvtmtyWT25V8bt8q7Z5MvmRdBw57s/YrL6hI3c8yzfAmd2Rz1VNnupezrasBQy1g3XrhVZmJfpltK9isEPv0rB7BghDV4NmZwdslGrlobFHBlhroDDy/QrFdburt+p50k7hZcoETSU+dkjFx+GnSY7m0H1vJkCP/UYbaipX8Er8cVobk7mYAAkxrsLQDKf1xZE2pKJtLK17GZqm9kmupdCCaPNvdzDfokiRkV7FQQ+4ZypdorIbvc0b99jwZdgvmvXkX/gcxDENPDlU8oj+6LQ4Y0gT9oHaZDVXrNUrfYr/OSITajbiyXToAMDh5Emmdrsbff2ef1i/9Feg9phmqntoQUXrB97HhEZiY4pCWlw6yjClke/rnrugFtPEK62wP4t/1lMQ457P7jxuytyhRzu5QI0qD1HR5XyXDdxPtwr0FmygRSHkaBqrfW12mB7hIMYpHyPJRpaOjDEtWMxNPQENLiiQhXkLPveeDWj6UI9+yaIkAauLMQ/nQpcedu9095PA+/dtTkVFWeyPgON0UCqkqznmLbJQKLeJi2umQBWyBdCQhrc5kp8zYxLw/nyVyEN3m0FO+AqnBVHO/A0yIrvBeF0VBwN9mrHlPHE0DTdGiGp8rmdJQ+ucl1uPicNVu9t0c6naxhR1nrtbDhT2uUZSmcLIkU0VDnR04/s2vUCfbPB396rw4p/IbquFhis9SWSHHPTMq2rnWjkhuuAVHXYpqmbOqs1aL1H7OeQkAYvIqs8xhmAQ+/pe/34+xXRwFkCoRopbsydgn/uEGczn+0pArVGDcsPYvgb51MFYmxIykg3W5nRdrk9Wy6WkAbeHcg3o/MMnJcnyw/9uDsQ0eCxLdBB3gvuqA2OhnygcSk5DQTM7j/rfkVhyao6sJK5IGORkAbeiZaVXD0qqVLlxQQy+4f9yDsQ0cAdC1Ptudcy84xvR4NTtO0GM+AFJwlgSwEverONDZonNFh9dd7YQJeLTaFbVPa3Qz5FJZTwoRDQcOedKBg7b9Cd2NStaBhJ5o7KjxorB9D0sycJEaThE5owrrIgIQ2ZZjBiJytKTlDYVxK0E6fOBDT0PbEjMva9e2Y3disadrpksmqYLS35SrCk2Y8jJ5RYiClu/72kNGT804F9r8qVoHSqC2JWsqrWQ3NHQINn7YvcE678+Z7e841oaFmSmxVo6WSZW+KqDAcTpqLp0DdItf4taeirAh5Qk/ti33d6RF5CVvOBkRXR4I5d0PAh8OwEVnd7s9lgaqYjzEdLAMDy+t1HBhZeJufomrkBYhckJqYhU5KFPGTle38oOSo/JN8XfaJJQANn7vYF9+zRwKrQb0WDvbTecC3A4DCz8YK2L+05Mv0YcIGL0yDWFUxOQ6ZaFE8IZML6RX9FnItGM+JMhLX5SzQw2/IFmpbF/Kxrp4NjpM7Wy0s2LrmCBiQ0iuIksZz391HF4VRRQ56Hv2g2UJBFVkQ32wtgXBNeqr3ujN0rVjIvUNMv2TLjKhpomFQwwkowYHCH65nC7WTOHfiSbqBn3JaGuUXqhxs4DoHXgiauzmi8IRdcA8duZoQZ1Xbni56upAGhVOnJIekkWOhfavayalCfKF7OJrml9PBdKpqCLEfHs4HtzQCSViuxqgzwyTZY0s5LtutpQOgPy3m/eBI/a7XzGJwU3nSI9xvCBYO8a6jSA7ehYTxgw7UApmWOMzYrrNcTTofG0s1jT7HZqjspvFsarAEUSg++1KQg+EDRR+JJWD0Q70ULliUW3DOcMO9NaBgYwKSKtfa0OJycbQKSlwW4+/0YeAkRABo1mBqLdbQf/VUaEApDLscVt/1Im0udea/5mZhSOGjVd2NKTgrhJjQcTMnwhaHd6op91CliuIEQTN9oPmdzbAO1iNRb5iY04NSkJyZi1zZz0X93UM5EWMPpJc5QYl/ehIZ3A1h+sfFMZXziYPcnEFVlfBj6N9OQqXpN46t23ct50uZMviEklQre3HMWr95GN0zmAVXa2ANch5rYYq3tSVVHQKXUXvfRPd2GBi45KtKpHlyPIJ4GLvsWqmsRUHTjfMPI9Z7ni+XLhqxS/7gsuNT6s0En12Yr6e2JeXD28/b8FjIJaahGpHq8ig0mlMLV7wRexUasUOJz0YHR427LFYCFcF7UwRU0LCzL3WaYrFcbr6EFd5sLTp1rEAC8+rnbcNzoxtoy4dlzE9JQus8Lhb/bjVN5mZUrIsK82eAGoIQ0cDuqBMQcVx2pOFfwiidvQMMAOlu+bJ7f8WDSbfV0cL4+YGBgpW6t+MIavJf6+XB5QhrQMKq9YWiAOd1AZQiy/JVsKPjNCy+XzYg6Jfeor+ClUBcZWzelYWbR/ahqe2iSqj22sNM8bzDR/DXx9xqH9ZEsRscbS5tnN5+5olxMVrMPfoFd8Bwq5jcQ4aPIwR0YKsFoUCaKBt8GQ2Wnsa9qz50Mt6VhbGg63lByju0dgIaSuQHa7px6ONE1EWTUVwD1QkylBfJHvlISIKKBjTdynesdZ+VhtZkLSXJmVMpKttwpsXZ3HS/0zQUBI3wE365aSu+hOWzWsz4H0JOON6Uhs1kfsSwndWNYnLg18udCQ2OHhhf6Iw8skT25YCFdMhq4VLSsKnKuWK8Xc3w4w3GO67522V6PtBNUekXSUPXV1ePVcYGKbs6SvS0NDG6dl1OkgYXSYLF8DmchPg7L7R8kxtgmb0ik/SGMXP57V8lo8HQAezT/IkZvbAI7+AXbZbOxEVaCuFUm/hjt99DQ0i3kNNh4uTpZpY5UdJcuaAsmELaGiY4ekFohg69L04yN9/AO7F0Sh2Q0hBL9ATj7SnPnittx5lZk4CJq3Q5lgW/7LTRkWofjCxHqExNYQN94bjWZD09vuwXxr9kyOWxdbaFlgh02qXAwybo8Z5SMhvg3NHvvaOS+OO3msnDJah9klkVeTfE3/R4aPDQ+5h9Tb3NoLKlqR+wpk4wOC6jquKZj/HQYUEk0GmwSVOUno+GuHLE2kzwnV8RbiUi7hVmIC+O15YiVoGX/vd6Yhm5EmZ3N9lnF6wpZAQ38cMmRrGv2E2BIGsyoVnLiTLSsFn1rpobCtBup9fNH6+KiqXf1cB+og6AHydEQ3HLiChpGx5DHbM+fTt66QmyQGq5t6hT4kYBqI2wUbSIWH/pQJBspEDskSEPO+Ubx7RJQaNfzeH8G/9DI4T0CSg95WQ22U/LNwHW8y4iKv0tl37ySFTXUAabB7SNEg/uVeikNL5b7259sVCcWsOA70tDUZoKbzAg6E6PrTAzrkGlsDeONLSUdzNnPxBmmcf5Hr9qVSgWZ5OjfUER5WHEQWpVfatZ7ORlvl4EXzMn5ckSNan/I2tF1dvliJZyOiL4MRXVYzpNL4R56j8ISzKbbR/ApCk3ygPgr8S2G8QLoj04i81Siy6Xw7x7iVOZIxwva8Pbpjm2KXAS8tR5efC41MlsktcwlPqOxhIBuozSHl+wgcz2q/VJnOBx2OqX4HWTuaLthp1S9dmvJAuqiQ3q4soNEGC32VCjZuk6WgtJ9rvAWuaPFzlp/4pDRiuWpsfFqv0hAWkwzXei0wxv3EQ8c780KV9evoEtBf++QJKLJ8FrETLVHVE7ZljMx6FEsirqULmyv4kgIW1/VGKUsfAktydRIXOjJ0HXohufGz9sNrmGSrPWsgbT33HWr9xb22TBPrZ1lgfR3326D8ep4IFbo+3715P7SIbDozjAtGw34xgTAdAyr1goaR6qP7U9B0CPFdfBWxLk+QXeNvTXI3nRSqu3tDdO1Uwn0MyDRIgmwvCb16GD6Q9E/iBNWvg2SfnBmQ4t4dPTHfj7mqRj6AWwBwKbnwDC5ao1XrL3Jpy0E53POKa7E6Ik5X7i0lbgCk8OWC0/MlzTZ2TLclW7d9MdYb40pAAZ9x4krwO/rM9nOOH2MN9ElQVaclUinxY1xAs7Y28DU+a0WNvhHcLmg6gqaBqn9tk3t6pWLKcSo6e42F6f9iq/7whui+378an6gc6BxjF/nluIKdMcRBRk43Cr+DTL7PZVJP4YxsoxezjdL8T04vbPpYQ+YDXX6yn4/Ka7CxACBupeZYST9hYcUX8Wr5Ww17ADp6it3a01xNT4MAP0J5wOEq1+6mX8Yf94D5lHj/f1WPzOQIkWKFClSpEiRIkWKFClSpEiR4i/H/wATO7XHzZtdEgAAAABJRU5ErkJggg==;" vertex="1" parent="hgtoQCEPwnBt9p70s2Xu-39">
          <mxGeometry x="31" y="14" width="55.94" height="18.5" as="geometry" />
        </mxCell>
        <mxCell id="nXT7cmKq0sEsVXdaDgDs-21" value="Executor" style="text;html=1;strokeColor=none;fillColor=none;align=center;verticalAlign=middle;whiteSpace=wrap;rounded=0;" vertex="1" parent="hgtoQCEPwnBt9p70s2Xu-39">
          <mxGeometry x="89.94" y="9" width="60" height="30" as="geometry" />
        </mxCell>
        <mxCell id="hgtoQCEPwnBt9p70s2Xu-41" value="" style="group" parent="1" vertex="1" connectable="0">
          <mxGeometry x="510" y="171.25" width="300" height="72.5" as="geometry" />
        </mxCell>
        <mxCell id="hgtoQCEPwnBt9p70s2Xu-5" value="&lt;span style=&quot;white-space: pre;&quot;&gt;&amp;nbsp;     &lt;/span&gt;FunctionPod" style="rounded=1;whiteSpace=wrap;html=1;" parent="hgtoQCEPwnBt9p70s2Xu-41" vertex="1">
          <mxGeometry width="100" height="30" as="geometry" />
        </mxCell>
        <mxCell id="hgtoQCEPwnBt9p70s2Xu-7" value="&amp;nbsp; &amp;nbsp; &amp;nbsp;GenericPod" style="rounded=1;whiteSpace=wrap;html=1;" parent="hgtoQCEPwnBt9p70s2Xu-41" vertex="1">
          <mxGeometry y="42.5" width="100" height="30" as="geometry" />
        </mxCell>
        <mxCell id="hgtoQCEPwnBt9p70s2Xu-26" value="&lt;br&gt;&lt;br&gt;Container Repository&lt;br&gt;(e.g. DockerHub)" style="rounded=1;whiteSpace=wrap;html=1;" parent="hgtoQCEPwnBt9p70s2Xu-41" vertex="1">
          <mxGeometry x="180" y="-10" width="120" height="82.5" as="geometry" />
        </mxCell>
        <mxCell id="hgtoQCEPwnBt9p70s2Xu-27" value="" style="endArrow=classic;html=1;rounded=0;entryX=0;entryY=0.5;entryDx=0;entryDy=0;exitX=1;exitY=0.5;exitDx=0;exitDy=0;dashed=1;" parent="hgtoQCEPwnBt9p70s2Xu-41" source="hgtoQCEPwnBt9p70s2Xu-5" target="hgtoQCEPwnBt9p70s2Xu-26" edge="1">
          <mxGeometry width="50" height="50" relative="1" as="geometry">
            <mxPoint x="-130" y="105" as="sourcePoint" />
            <mxPoint x="-80" y="55" as="targetPoint" />
            <Array as="points">
              <mxPoint x="110" y="15" />
              <mxPoint x="110" y="33" />
            </Array>
          </mxGeometry>
        </mxCell>
        <mxCell id="hgtoQCEPwnBt9p70s2Xu-29" value="" style="endArrow=classic;html=1;rounded=0;dashed=1;entryX=0;entryY=0.5;entryDx=0;entryDy=0;exitX=1;exitY=0.5;exitDx=0;exitDy=0;" parent="hgtoQCEPwnBt9p70s2Xu-41" source="hgtoQCEPwnBt9p70s2Xu-7" target="hgtoQCEPwnBt9p70s2Xu-26" edge="1">
          <mxGeometry width="50" height="50" relative="1" as="geometry">
            <mxPoint x="-130" y="105" as="sourcePoint" />
            <mxPoint x="-80" y="55" as="targetPoint" />
            <Array as="points">
              <mxPoint x="110" y="58" />
              <mxPoint x="110" y="33" />
            </Array>
          </mxGeometry>
        </mxCell>
        <mxCell id="hgtoQCEPwnBt9p70s2Xu-30" value="pull image" style="edgeLabel;html=1;align=center;verticalAlign=middle;resizable=0;points=[];" parent="hgtoQCEPwnBt9p70s2Xu-29" vertex="1" connectable="0">
          <mxGeometry x="0.3667" y="4" relative="1" as="geometry">
            <mxPoint x="-1" y="-4" as="offset" />
          </mxGeometry>
        </mxCell>
        <mxCell id="nXT7cmKq0sEsVXdaDgDs-12" value="" style="group" vertex="1" connectable="0" parent="hgtoQCEPwnBt9p70s2Xu-41">
          <mxGeometry x="4" y="7.5" width="15" height="15" as="geometry" />
        </mxCell>
        <mxCell id="nXT7cmKq0sEsVXdaDgDs-13" value="" style="ellipse;whiteSpace=wrap;html=1;aspect=fixed;" vertex="1" parent="nXT7cmKq0sEsVXdaDgDs-12">
          <mxGeometry width="15" height="15" as="geometry" />
        </mxCell>
        <mxCell id="nXT7cmKq0sEsVXdaDgDs-14" value="" style="shape=image;verticalLabelPosition=bottom;labelBackgroundColor=default;verticalAlign=top;aspect=fixed;imageAspect=0;image=data:image/png,iVBORw0KGgoAAAANSUhEUgAAAP8AAADGCAMAAAAqo6adAAAAe1BMVEX///8AAABFRUUSEhJ3d3cICAi/v7+Li4vx8fHPz8+np6e1tbX5+fnY2Njo6OjKysri4uKurq5fX1+fn59aWlpwcHA8PDzU1NQdHR1OTk6ZmZkwMDChoaFVVVXz8/Otra2BgYEjIyNnZ2czMzORkZF2dnY5OTlBQUEZGRkNWufDAAAJfklEQVR4nNVd61oiMQzFyw53UHdVRITxgvr+T7gfgjNJTueedML5J4xtDtOmaZKmg4EmRvNlMp0m4xvVVs8Cy/Xb90WO1/101LdI0bDd/bsI4Gsy61uyGEheQuSPuJ/3LZ01NsXkf/DPjy5YJJthmg43yUKtySr2B6RqvXXB8p6ItFqrKKekBvsDEo3OOgHf07Bzm4vLmvQvLq4VKHTANCTTquMs2JG2XvfryW4zLFaEXzpEWmH7VCBUJ830lrczySdT8lDQ13NnGm3xSIZhcrMYp/nf29aNzj6zRlL+TZFO6GsE3GYS7E/WyDr75LJto7OrrI0dfBm0hfrSAfksnf5+NMtlaqmYCf2QGh2Gf4A+VoEk0PsoF6nlAHjOGghP64/wD9Cusy5YZH2v8w/XRKRWGoCo+XH4iX2Q/22bzjrhNfSiqUgF8peCDO/Pome+QvwfWnTWCbmqJ2s9m53T4n8uwrLOv2+DAyDydnCedbwnnzKJmvOf1SMUNLkibwZzNUUsnTGTqLlOptuIp5Ln7gL8l805dEC+8lMtze2TxibgnP7337InA/wfG3Pogrxfovw5gT+NG/2szYd1dETU+U+WOablqZdu0rTRpAGfv5L+S9PeOqFITqIAmps/75TPd8XDUgVEHf7k9QsjLdMLzddjrjzvqh7nm8H7xt11Aek4FV/dHHcopdorDL61qXah0B8g7g6YOnwCdue8VYhixOjX0R75D1a2VhqAyqnmgV1z/nWMh0nxO7AE09Nqra44/3r6bD7d3UaPAtCJp7btuOH09caVOpikqVarclvvN8B3TcVUm3rPgr/f6B4TU2vywZ5WqV197EzEBM+uVsPqYFbqq1ar4NbUalgbXE+rmZ0Q7tJqWBv8RW20mpX03fLnUmo5XUaS/pVSw9pYcjG1Vumx5L9Salgb91xMrWbBo6mmWJXBpVTbd60l//5CuqUQy3Sq1W4q+b9rtawL4XVSs37fJP/C4E+vmAkp1baekEURPZxVC7dCSrVNCoT0+sxpKYYUU63hV8m/dfaEJRZCyH9qLX+fBX+5Seme5vaLq7PgL4VsEeAuwFnwByNNz/N4FvxBSen5qM6B/1LKqLhHPQf+71JGPfV/Dvwx91JP/Z8Df6CvGXbyv/7DDqV9yP3y4o8ENg6PnB6sjIvbIJR12db5E8zfq4t++F+HRGnbWP2jDT74z24D47PDFD0b/rPFY7K+hnXvhLRts2fA/+b+7nJVIcnLx1AgrXfq5Qz4gz+yHuo1XnSMpRYUja4SFByzqEDNHLzh/logBQWzSuUzR+zX1e0roN27aZH0dYIz+08mo9RE+/2wM/7BBPNqtO/QGf/7ELtKdFBNzvgvE4kJsJ3CMx1StpzxR+CMUG3ePX+YEW+qzbvnD69fdx32zl9GPrSP23jnj9O//fHmELzzx/2/bvve+YN/Tlf9eecP6Vl6iW9HOOePvu82Z3tL4Jw/pOdop2c75y+T09XTs3zzl2k/+mWHfPPHyKde5P8I3/yx5ob26Rzf/NFhqd2Db/5AX/2wsWv+OP3VnbCu+WMwQL3Wgmv+WOJL/XCaa/5AXz853zP/R+CfqvfhmT+UmlC3fnzzx1igXonPX3jmD/QNzqY55o+lZpR9Pwc45o+Rn8aFbarhmD8mvhkUXHDMP8b0d8wfUwEsMlD88pdHnrpkeRTDL39MBbCoNOWXf5Tp75c/Bj5NJHPLHwOfJglobvlj4FM58nOEW/4Q+LQpTOGVPwY+bQ7meuWPgc8Pk3688sfIh02ZWa/8IfBpVJfGKX8MfBqdy3fKHyMfNtPfK3889WVUZdopf4x8GHXklD/QtxLLJ3+MfBhNf6f8MfJhYvwPvPLHyIdVTz75A32zOssu+aPr0+zwmUv+O+BvVmTeJX90fZp15ZI/HMq0O3vqkb950jeBR/64+bGrSe6RP6Z92fXlkT9cMmQQ9/+FR/7w+g2vWXDIH9WfftpPBof8Qf01v8+pPhzyB/VnecemQ/6w+bO8YtMhf5j+uic+Ofzxh8C3aUVmf/wh8qVY7Q7hjz+4vk3vV/THH64bN+3NH38pkO39gu74g/qz2/se4I4/qD/bW8bc8Y98H487/jLyZ3y/pDv+Uh79Iy8M3viD69/4Ojpv/GXao/V1NN74y4IPpsbvwB9/eeLb+nJxb/ylONb9OeMvz3yZF111xl8e+jC/YNcZf5n1bX4ZqzP+Iu3T/jIyZ/yFMPY1d33xl3lf9ncx++IvjrxaBj5OAP6Rb3TnEIkf1sbfwBt/IY1Z1k8OSDWxdbeVQ2a9R+hS0u/rmo8fiMhnGqFL4L+P0GkRRNprhOGP/NMInRZBJH7E6BL4WyVaNxcmiiTA36DGRF0I17+98TMI8LcMtleAu/7jXEQM/G3DDaXgrv84AxH4m+84i8Gvp7HMesiA5+xi9FoAJkccO2Qr6fd4/TP3fVk7Po+AaKtlrlUF+OYvTp8Qbulx+WPWT5zbhrDGVo/qP772GwzGftQfexWGGc8MMtc0ziVfQbDNT6xhKMONu0j9BkAD/w9KbT4my/JfUtaYM8y0rgIVQ8cIP2XSPZW0JpLtTFMty0GN/5VGg6P8GsVibSIcjra5VqWgkR+NnA9m2RX+ACLbpkfjn0jxrdEevzy06MVy+j1qf7oQa7x+eYQ0bE+I7U8cm3u0CFSxJnkfKikvr4J/GnyKm38qaqcC2x+i7/CKld8CVo8LVg7n4XbjVLMDMntLhBmI9lcJwGD5qODGhoXbrzQ6ri0WjzMSPaxigmD1vODGnsWb7D1/bFTSHR7Zhup4ffH9h9Y2Jo9RgSUKvtqSL3IzRGkQYgGV0ARg1q+96SucDXmH5D0obXzQrxfyJ38VDEcjbIoGZD4u1CLegbvTIZxG30cMv58wtrPP81VIa98XqqCDCwstsB3D8uXTPxtwZPTrXe8RmABSwVPjx6q8EAPjn0/HfJ+mGfHCAoryJZPUB/M0wx+8BWXJox665neAP9XxM6IhLAprB0CdDdmxjpy+sv0Brs0DskVwGvrQGFSik6ab5xaY+uYLy2gccPcxmazZSIyz6zuAmptvo8F2SeQw8Hji5ZEBPET0eQSs0hOeTaTAKpKASFP/BLzS4ojUqL/iH/yIl9gOr8uQFFd2q+8CbxDM8Rll1ecIjABbp2sCGZ4n3PXAfgA782/7xScJDLrPTX+u3iQbA0/rOHGuxYTGli/TpEc/9w9G8/HjPK4Qo/lyOk2WN+o3CHrEfxX1WSEgHd15AAAAAElFTkSuQmCC;clipPath=inset(0% 0% 0% 55.49%);" vertex="1" parent="nXT7cmKq0sEsVXdaDgDs-12">
          <mxGeometry x="4.62" y="2.5" width="5.38" height="9.34" as="geometry" />
        </mxCell>
        <mxCell id="nXT7cmKq0sEsVXdaDgDs-8" value="" style="group" vertex="1" connectable="0" parent="hgtoQCEPwnBt9p70s2Xu-41">
          <mxGeometry x="5" y="50" width="15" height="15" as="geometry" />
        </mxCell>
        <mxCell id="nXT7cmKq0sEsVXdaDgDs-9" value="" style="ellipse;whiteSpace=wrap;html=1;aspect=fixed;" vertex="1" parent="nXT7cmKq0sEsVXdaDgDs-8">
          <mxGeometry width="15" height="15" as="geometry" />
        </mxCell>
        <mxCell id="nXT7cmKq0sEsVXdaDgDs-10" value="" style="shape=image;verticalLabelPosition=bottom;labelBackgroundColor=default;verticalAlign=top;aspect=fixed;imageAspect=0;image=data:image/png,iVBORw0KGgoAAAANSUhEUgAAAP8AAADGCAMAAAAqo6adAAAAe1BMVEX///8AAABFRUUSEhJ3d3cICAi/v7+Li4vx8fHPz8+np6e1tbX5+fnY2Njo6OjKysri4uKurq5fX1+fn59aWlpwcHA8PDzU1NQdHR1OTk6ZmZkwMDChoaFVVVXz8/Otra2BgYEjIyNnZ2czMzORkZF2dnY5OTlBQUEZGRkNWufDAAAJfklEQVR4nNVd61oiMQzFyw53UHdVRITxgvr+T7gfgjNJTueedML5J4xtDtOmaZKmg4EmRvNlMp0m4xvVVs8Cy/Xb90WO1/101LdI0bDd/bsI4Gsy61uyGEheQuSPuJ/3LZ01NsXkf/DPjy5YJJthmg43yUKtySr2B6RqvXXB8p6ItFqrKKekBvsDEo3OOgHf07Bzm4vLmvQvLq4VKHTANCTTquMs2JG2XvfryW4zLFaEXzpEWmH7VCBUJ830lrczySdT8lDQ13NnGm3xSIZhcrMYp/nf29aNzj6zRlL+TZFO6GsE3GYS7E/WyDr75LJto7OrrI0dfBm0hfrSAfksnf5+NMtlaqmYCf2QGh2Gf4A+VoEk0PsoF6nlAHjOGghP64/wD9Cusy5YZH2v8w/XRKRWGoCo+XH4iX2Q/22bzjrhNfSiqUgF8peCDO/Pome+QvwfWnTWCbmqJ2s9m53T4n8uwrLOv2+DAyDydnCedbwnnzKJmvOf1SMUNLkibwZzNUUsnTGTqLlOptuIp5Ln7gL8l805dEC+8lMtze2TxibgnP7337InA/wfG3Pogrxfovw5gT+NG/2szYd1dETU+U+WOablqZdu0rTRpAGfv5L+S9PeOqFITqIAmps/75TPd8XDUgVEHf7k9QsjLdMLzddjrjzvqh7nm8H7xt11Aek4FV/dHHcopdorDL61qXah0B8g7g6YOnwCdue8VYhixOjX0R75D1a2VhqAyqnmgV1z/nWMh0nxO7AE09Nqra44/3r6bD7d3UaPAtCJp7btuOH09caVOpikqVarclvvN8B3TcVUm3rPgr/f6B4TU2vywZ5WqV197EzEBM+uVsPqYFbqq1ar4NbUalgbXE+rmZ0Q7tJqWBv8RW20mpX03fLnUmo5XUaS/pVSw9pYcjG1Vumx5L9Salgb91xMrWbBo6mmWJXBpVTbd60l//5CuqUQy3Sq1W4q+b9rtawL4XVSs37fJP/C4E+vmAkp1baekEURPZxVC7dCSrVNCoT0+sxpKYYUU63hV8m/dfaEJRZCyH9qLX+fBX+5Seme5vaLq7PgL4VsEeAuwFnwByNNz/N4FvxBSen5qM6B/1LKqLhHPQf+71JGPfV/Dvwx91JP/Z8Df6CvGXbyv/7DDqV9yP3y4o8ENg6PnB6sjIvbIJR12db5E8zfq4t++F+HRGnbWP2jDT74z24D47PDFD0b/rPFY7K+hnXvhLRts2fA/+b+7nJVIcnLx1AgrXfq5Qz4gz+yHuo1XnSMpRYUja4SFByzqEDNHLzh/logBQWzSuUzR+zX1e0roN27aZH0dYIz+08mo9RE+/2wM/7BBPNqtO/QGf/7ELtKdFBNzvgvE4kJsJ3CMx1StpzxR+CMUG3ePX+YEW+qzbvnD69fdx32zl9GPrSP23jnj9O//fHmELzzx/2/bvve+YN/Tlf9eecP6Vl6iW9HOOePvu82Z3tL4Jw/pOdop2c75y+T09XTs3zzl2k/+mWHfPPHyKde5P8I3/yx5ob26Rzf/NFhqd2Db/5AX/2wsWv+OP3VnbCu+WMwQL3Wgmv+WOJL/XCaa/5AXz853zP/R+CfqvfhmT+UmlC3fnzzx1igXonPX3jmD/QNzqY55o+lZpR9Pwc45o+Rn8aFbarhmD8mvhkUXHDMP8b0d8wfUwEsMlD88pdHnrpkeRTDL39MBbCoNOWXf5Tp75c/Bj5NJHPLHwOfJglobvlj4FM58nOEW/4Q+LQpTOGVPwY+bQ7meuWPgc8Pk3688sfIh02ZWa/8IfBpVJfGKX8MfBqdy3fKHyMfNtPfK3889WVUZdopf4x8GHXklD/QtxLLJ3+MfBhNf6f8MfJhYvwPvPLHyIdVTz75A32zOssu+aPr0+zwmUv+O+BvVmTeJX90fZp15ZI/HMq0O3vqkb950jeBR/64+bGrSe6RP6Z92fXlkT9cMmQQ9/+FR/7w+g2vWXDIH9WfftpPBof8Qf01v8+pPhzyB/VnecemQ/6w+bO8YtMhf5j+uic+Ofzxh8C3aUVmf/wh8qVY7Q7hjz+4vk3vV/THH64bN+3NH38pkO39gu74g/qz2/se4I4/qD/bW8bc8Y98H487/jLyZ3y/pDv+Uh79Iy8M3viD69/4Ojpv/GXao/V1NN74y4IPpsbvwB9/eeLb+nJxb/ylONb9OeMvz3yZF111xl8e+jC/YNcZf5n1bX4ZqzP+Iu3T/jIyZ/yFMPY1d33xl3lf9ncx++IvjrxaBj5OAP6Rb3TnEIkf1sbfwBt/IY1Z1k8OSDWxdbeVQ2a9R+hS0u/rmo8fiMhnGqFL4L+P0GkRRNprhOGP/NMInRZBJH7E6BL4WyVaNxcmiiTA36DGRF0I17+98TMI8LcMtleAu/7jXEQM/G3DDaXgrv84AxH4m+84i8Gvp7HMesiA5+xi9FoAJkccO2Qr6fd4/TP3fVk7Po+AaKtlrlUF+OYvTp8Qbulx+WPWT5zbhrDGVo/qP772GwzGftQfexWGGc8MMtc0ziVfQbDNT6xhKMONu0j9BkAD/w9KbT4my/JfUtaYM8y0rgIVQ8cIP2XSPZW0JpLtTFMty0GN/5VGg6P8GsVibSIcjra5VqWgkR+NnA9m2RX+ACLbpkfjn0jxrdEevzy06MVy+j1qf7oQa7x+eYQ0bE+I7U8cm3u0CFSxJnkfKikvr4J/GnyKm38qaqcC2x+i7/CKld8CVo8LVg7n4XbjVLMDMntLhBmI9lcJwGD5qODGhoXbrzQ6ri0WjzMSPaxigmD1vODGnsWb7D1/bFTSHR7Zhup4ffH9h9Y2Jo9RgSUKvtqSL3IzRGkQYgGV0ARg1q+96SucDXmH5D0obXzQrxfyJ38VDEcjbIoGZD4u1CLegbvTIZxG30cMv58wtrPP81VIa98XqqCDCwstsB3D8uXTPxtwZPTrXe8RmABSwVPjx6q8EAPjn0/HfJ+mGfHCAoryJZPUB/M0wx+8BWXJox665neAP9XxM6IhLAprB0CdDdmxjpy+sv0Brs0DskVwGvrQGFSik6ab5xaY+uYLy2gccPcxmazZSIyz6zuAmptvo8F2SeQw8Hji5ZEBPET0eQSs0hOeTaTAKpKASFP/BLzS4ojUqL/iH/yIl9gOr8uQFFd2q+8CbxDM8Rll1ecIjABbp2sCGZ4n3PXAfgA782/7xScJDLrPTX+u3iQbA0/rOHGuxYTGli/TpEc/9w9G8/HjPK4Qo/lyOk2WN+o3CHrEfxX1WSEgHd15AAAAAElFTkSuQmCC;clipPath=inset(0% 0% 0% 55.49%);" vertex="1" parent="nXT7cmKq0sEsVXdaDgDs-8">
          <mxGeometry x="4.62" y="2.5" width="5.38" height="9.34" as="geometry" />
        </mxCell>
        <mxCell id="nXT7cmKq0sEsVXdaDgDs-15" value="" style="shape=image;verticalLabelPosition=bottom;labelBackgroundColor=default;verticalAlign=top;aspect=fixed;imageAspect=0;image=data:image/png,iVBORw0KGgoAAAANSUhEUgAAAO4AAADUCAMAAACs0e/bAAAAh1BMVEX///8AcsYAbMQAb8UAcMUAZsIAaMMVeskAa8SPuOEAacP6/v9+q9v7/P5jntaUueHY5vRHj9EtgctgnNYAZMJxoNbx9/zo8fm50evg7PfD2O5FjdDu9fvN3/GEr93c6fWpx+edv+M6h84LdshZltOzzuqoxufH2+8mfsuArdwAXsCMst5xoNdmIpZuAAAQWElEQVR4nO2daYOyug6ApRuIKIKKuLO5zPX9/7/vtjguQCkFijhzJt/OeR3hMWmbpEk7GPxJO9mudn5wCq/Xqx2e/Omy7/fpTg7HvRMDTEzDMAAVwzCJidyJffb6fjXVMrUdExsAIi0nCEGDzHXL3/b9ispkZ+nYgHnQDDQwySb8DZZ9sCABBaVyhGo5Ovb9ti3F32Ap1m9iE+5/sIpDnQhtmGvVk0Pfr91MQmTIK/YpAM9+oIbPF7MJLBOIrXHfr19PtglpCptqGP6oScvGNcdsXhCJfoxFLyPSDpYJNIO+OeTkKHYpZAXhZNQ3ioQs5m1G7auA+OPXJC8yFMFSQeaHz1gHpMSQH7x42DeRSNaN19oyIVbfTOWybrXY8sVM+qYqE1/ZJPUqhtM3F1983AXtp/KeO6KlvLO+2Ypy6IyWP1+NU+nLEdlq3dFqGg6fT1r69iKJdA0QbBqaHiVWMH17bs9Vut4WZL5LnzINE42YLMVHRWOJPQ1BYGDgWut3KjoBndJqCGwHUwtho5jLTP8ZUV0nx3cpOVQQAokFulFV1guaxmz9Dtop7po2tdvqz0Cin7rH1bucpuoJMuOgY1pLYRDUXhC5+F3S7t5gyrUEkU2HmR/3c0z5LvB1oVYrodk3HE/MqJs9Nq9D57GNQLOTEbzo2MFoLAjv1dOuOncwmgtRnxmYdesrtxMQKXakV50sQgDIbQlXf9FF7WZTFyMX4mu6Ca7CbuBFZdjgqVcuwsnNR1gnZqMN06xAV6E926rdR2Tq5+ePeXLr7P3zBWzU4caK11xg5Lyh1V4j/BBXWsyJKtqz2lUI4glnpK1nRjujJrYi3InKVQgRd8p/jHeK5m2MGu+U0I5VKtfQAsGjVte4uVEjqGR69tUFBxBbVTPoeWI03TgGStwrZR4Vws5K4nleUJmvKhGiYuNUjeejIUOXDl5WV70JMTLar747NUMX1Jw5dwvTrG1WYNEad6jCgUR4xovDhcmX0XGD665NuGTWl5dN+6FLFx/eIjG2QHwVjualrdeLImBb52rc0tvRmBMV8L45gIaOAI5OwvVjtyB1jBqfRV9WLa1z6SW1gDuXIMQy19Ag4l2B0dEh0kYN3Xa4QbvwAJENr4xoO2G5L/SdqIck3guLjZb2RXamJu3Ua7WZqZChcRcf20i/FT32JaqNemrJzdSwXRGA02KmAsaV95Xr+Ns20es2DDJwIt7q8qVCYyzjypRK8/1rxK9YXjmPwlGU23WCRNsLV5JlWB0agzaZydG8Kax54Y2ikfWSrcnjpkbthhVGDcT5HqS1wG2alAOQu58RwNepoIjL/qcxT3yhM1hh1G0mq2YuJJwveCqaRtm9CC6ulhq1JTTqrcio23iSTaI/RCLey3qTfLV3GW5q1JdQuP1z2KOS0BjB5rin+suuoXHjsNAsLGnluNptphYbNcv38IYxaZ7WqJ2EhPjKe8e1zikbFeKy7yLQEr46P99jNM9a1YyHEHFKFp/CHJzDNbljkRp1bAvjJk6+p0WcUA8X6TxHYbwvtGhAcEEZXPO8KNlQoEbtHIVGnc/3INh4D6UeLuCZ0VHLDwg4n233IIOL6ZLsJ3N+mgqacCE26iBj1KRx1GvXwy1WnU/dvB3TqGF688VfcVOF0LHID34QINpQHBoPn/kefsApI/t2uN6isPiQS2rwXFwqq7Lghw7jTVARGoNbFAEa1r5vk3rLbh43BPlfC8Dg9k9luAPmJ0L+kgpNMBG6TONbvqdhVBTU7QLL4p4Liw8kj1BfgEtlPQHccA9BgqryPRcCmrjN41ntnoNX3GVSGLTz5PmmYlymKIefmJPJ9/yv/n7CIa4f2L/gjozcn+fyc1W4VLzQ5SfmoGGIQ+Nxbdxjk8qiV9xsMScyc0n1UtzMm66uJalIatTifE892TeqoyrFLezoluNGUfYwgt3C4A9jQCpCY3lZNAtzS3ABeeyEeXeDLsXdAJPkiP2EHwukUYQC2knDTT8uLnxJ4pzM+yfKcWHKEYWvE7B32vD9DxZFtN05aErLw0X4GfzSsMi8u5lCXMZhYDej46XN3yZrbdRW402wAi4yn1XHaS4DyOJqqY7dTFX64SvmE9MoQhwaC2TYfMsvj4u0x+sub7mMOrgaK5jKvdyuJHBqbNRBi12SPO4jNBntyW0ZromLinsgNHDi+h/V+R6etNoTKsWN7zFgU9zM4PRKMnPImDvHWrHuuFUNVSnug6sp7v4yzHgVh33M9T8qQ+OstGuMKsW9tMUdmgbRr5nRmcZ7nAQYwLotadTHdtubHeKCW+Jqn1GdnwCe/5HmeySM2mu5d60C1ynF1dJFNs4kJ71gM+dNXFJGPWtZh9E5bkqMs9H7MrzwhnF1ErN1q9A7cHlbuNM9N3CqMOpLO1PuD3fwHTgV319g1MfWFVRvxj1mu3n5gRMb7lyjbt/S+GZcaw4nGWI6cfE8LmrUm4JRt1duxwtRERcg6ivPMtFBSeBUTGK2Hrk94LKPQDPXsT394nlc9JfRXpKYawW1j+825vv/hKbhZNIa5wUvccuSmD7vMT8Ml4qRL2b2E8KZuO6HcyxVFLb2iAuLrRe8iev+MSXNM5+Am03c5ieu+8eUdCP3iXs/QmYWnTKr7NRCL/mPb1w1LZyfgPvPMHNpzMF69njON26opBHsI3BhWkXr2q/Ejy/9xlUxL38OrpZ6UvpwWvjSG+5ITVPjJ0xV/56JWzD/4uMqOiXig7R7e5qV/9Ibrpqh+2NwFbVGfZYxl+MqOs6mBu5Xj9r1FHWC1cBl9pStq3ofrqqjBGRxR2FaCfGCiy73SwTegKsi+JPH9a7g5rm/1kSySwTc/Xo8SLrHbdk9Uwc3XFqP2Dtf8YoAIU4my9ANrqqzBKpx0eWlIodX4JvNJnaD+6XoXIxq3EzjSlU9c1e4qo4BkcDNwKjErbHuqjpMQDmuhuKF76nWbj+4yNCIUbXi0xl7HtmHn4Tr2bytdhLb20OwuGDCudEnIzR8zSRg2hpzp2N3OjGLEz8k7r0fxVsPHaNazS9/21a7rdo4X6SAuxocXVzQHV1fk9w+1ZSq2axU8/cr33OsTXGvHeHCiVbsp0GG+cXdd92ur46Bq9WM4uGulTErCneLZWRFbUESh6I6Aqpm3ahQM7UOMAuWmc6BT3AiCwLxRqJmc0tHsyZWM4IGjqKXD9TRrqozi8S4COCJdGXbmE7a+lyo5swTagWAb8BFJrzWrdT0zrYjsTY/OCRx21bcVONCcgkaFmkejpZLqtdmx5PGVbG3K8BlxTLtDjygak5MsZqh6V7PkriK3CouLjKMRUkvzKqWda+omgEpOYhcSyds7ASJBG5HiVf2DqZm86FGxwiQyyTc1SlTZWoWTdows6dbhjtVdGxRYd19+op5VVnQhHp62aWhU+Y6hapUzdQFK1dzJe6gC1yOr3iX44Z1ZN4DwNsFn5S5hm17uzCJqybtUtxEyeDN4BqmxR+y6TGJKWbmmBDKbLr1mNloxqLRrCWnFQ+3QY99BW6Zr+hvSlNz38z6oo5tj3c2uzSCr2b2fbG1LuAulWSaOf27WVleNeExIY93xHQOO8vPYVTNkVFyewTzsOP7f9y9kUjFyluBu3ay9U6i5M1Nz4m9lj4ufrwLZxBTNYtI7rhKliIR7tJG+R6RylwVZTYJTIZraT0v2dpcdknIC+5WcaFRTta89hCJ1Bz7FAQmjmvomU7asxjzR/PDtVZcRpZ5vs2/slYO9/ZRymzGztCXZV76X7xJ+4GrIgjk4p4Tbvm8Vgv39nmmZ8O5yjKP6Nqs00n75ad+Vpsp2OMt4nrhpbyjvS7u7Y9S26bMksdwUTVHTxfsiRsoLfBNZTcTHrWUORWFd6F6+V9SZgI3ssx00p7ETM3opZZQafl2hWJvL/18orEOrY3O8q/y0N+2/eWvpCLppb+P4PxZKaq0OH+wEBwvTQNg9kMUdu+93fE6u2BcQ9Ups7b5Okq1po92Lz37resiX53IUuedNQfsD6W1GVRWVNURNOVVzW4aI0YkyXwX5Y01PFasp51eItybLHenvUMDPVMSmkZg1I/cWMeDbJZoorhtqsga3/v4JA6SSGU89e1/LsayqmZ6hpEVyKQ8VTfF5VlfjkWUxf2W5ZlOZTFIoat3SameCXEpc8W3Km55zLB+ZUL9mrg32U7pVEZ9YqmpjDGb0UJ4W6KjtKH1/lzOIWqluMvKkTdOpzIDy6iaMUN3cdrxv3WktF1Zu+mVd2Bc+TEhc+DOvk7rqVfBvZ0G1+QCSaWqU9uex/94iZJWszMnNaeVHI4nqIlEbF0xCdbcxArEyHS6WfnhIoLVU9l3cii/RaXyqAE4ybKO/KTymJBnZMbSlPpdC2vx8rLdBXsnvq1aIrfVLNx62/zYDN529lPG6wkxScOK1+uczLXNwj7utgJs7+Dbk0gj5arm9N80PhSlvBSFxve3Ay/aFPhSG6eDEGuXirPVRsv1yXJijDlTGQd3kDRN5JTiWveLpRTUM6PHZTxH2xesMuPpcTi7gFTVQtzGvCoOkqhT8YrphIaiyTU4L8uwR2zVcsS4g1kze+6jWj2dxwkRn9ubzzPnpdl81WNxPrhPuft/Q7+wy1aFOwhVHL7WR+vFxGTzGXQT6qo8NlQrcQfrBne4fQLubTsbpanLedmWGEe2Ue0B/Dm430+rgUufUdegfzbuYOpyDpH+vbiDwQnWWYJ/PO7A29e496mPkxXU4tIpy5K+oe834JZvaf1S3AHr5y7ZQVSO2+/Yfb7/2korXUTMvwiXySpYpCkxAwAAOUJ+Fy6T8Wp9tL+sxb9FUf49a8Z+C66k/OH+4f7h/sdwP8LN+MP9w/3D/cPtAXfz38DdD7zdyYqeHf+/Gpc+YJ6N4n41rlYIV383bkF+DW7ayzg97sX9faCwe68S916r0D0u2oRsM1fUWJS2dNyPY+sCVzO/vDfhakjYNcaKb7RZ2Py6SylcDZh7rzNcybNrICCmax1b3bosict+9OGoG9xl9ZFxqf1urmtF1zRV4zJgI1SMOz6HC5dU5L5T+03CtrcVSeK+bKah5/yhAldDuKrXkR32dVl0a79Z8bmbaUpwhZK2i0Z7v/blNW3lyjkAu1tchqo5dkm9Z9dSvPmwCe52F1hOdWUqtV+sT07SpepdSOFeS3C/IE8SV5/FAFdXdwJCLpZ0B1mHkru1FN3vFpPDpSQVamX2CzfD7pcaScldiI6wK7yQNocrRgUGpq5SVQn+m2XqZk7XQoQBt8RN64j0ty418hKgzKKEcLTLN9awjy3X1HuoLhRgx/uAPpYaaRlZ84zSYFqy9YILWPU1qT4cgqEaiV3r3Ik+ZOUUb/N9bXmU6B1BrIWXLjV9o8iJH+fdrBoNrWypcT9iqZGXYdaipZvR3xTVKJdtkp2jq08BpUtNPHtTVNOB7C6vkZIQl3mF741qupDQBJW4zH5JtP+B9lsUb3F3s7i46bktSdhTVNOFTKPbEC7g3qKaoNeopgs5pm5W5rBxutQYnxHVdCCjPYGZ86ogXWo+1ytsLysHM9zUAU7qnUb2M2Wta8TU/wU/xCtsL6dfOlQ/Sf4PUq1801mHnRYAAAAASUVORK5CYII=;" vertex="1" parent="hgtoQCEPwnBt9p70s2Xu-41">
          <mxGeometry x="224.5" y="-0.8000000000000114" width="31" height="27.61" as="geometry" />
        </mxCell>
        <mxCell id="hgtoQCEPwnBt9p70s2Xu-42" value="&lt;br&gt;Fission&lt;br&gt;CRDs" style="rounded=1;whiteSpace=wrap;html=1;" parent="1" vertex="1">
          <mxGeometry x="309.68" y="180" width="80" height="55" as="geometry" />
        </mxCell>
        <mxCell id="hgtoQCEPwnBt9p70s2Xu-43" value="" style="endArrow=classic;html=1;rounded=0;entryX=0;entryY=0.5;entryDx=0;entryDy=0;exitX=1;exitY=0.5;exitDx=0;exitDy=0;dashed=1;" parent="1" source="hgtoQCEPwnBt9p70s2Xu-1" target="hgtoQCEPwnBt9p70s2Xu-42" edge="1">
          <mxGeometry width="50" height="50" relative="1" as="geometry">
            <mxPoint x="370" y="200" as="sourcePoint" />
            <mxPoint x="420" y="150" as="targetPoint" />
          </mxGeometry>
        </mxCell>
        <mxCell id="nXT7cmKq0sEsVXdaDgDs-23" value="Create&lt;br&gt;CRD" style="edgeLabel;html=1;align=center;verticalAlign=middle;resizable=0;points=[];" vertex="1" connectable="0" parent="hgtoQCEPwnBt9p70s2Xu-43">
          <mxGeometry x="0.0162" y="1" relative="1" as="geometry">
            <mxPoint as="offset" />
          </mxGeometry>
        </mxCell>
        <mxCell id="hgtoQCEPwnBt9p70s2Xu-44" value="" style="endArrow=classic;html=1;rounded=0;entryX=0;entryY=0.5;entryDx=0;entryDy=0;exitX=0.5;exitY=1;exitDx=0;exitDy=0;dashed=1;" parent="1" source="hgtoQCEPwnBt9p70s2Xu-34" target="hgtoQCEPwnBt9p70s2Xu-7" edge="1">
          <mxGeometry width="50" height="50" relative="1" as="geometry">
            <mxPoint x="370" y="200" as="sourcePoint" />
            <mxPoint x="420" y="150" as="targetPoint" />
            <Array as="points">
              <mxPoint x="410" y="229" />
            </Array>
          </mxGeometry>
        </mxCell>
        <mxCell id="hgtoQCEPwnBt9p70s2Xu-45" value="" style="endArrow=classic;html=1;rounded=0;entryX=0;entryY=0.5;entryDx=0;entryDy=0;exitX=0.5;exitY=1;exitDx=0;exitDy=0;dashed=1;" parent="1" source="hgtoQCEPwnBt9p70s2Xu-35" target="hgtoQCEPwnBt9p70s2Xu-5" edge="1">
          <mxGeometry width="50" height="50" relative="1" as="geometry">
            <mxPoint x="370" y="200" as="sourcePoint" />
            <mxPoint x="420" y="150" as="targetPoint" />
            <Array as="points">
              <mxPoint x="496" y="186" />
            </Array>
          </mxGeometry>
        </mxCell>
        <mxCell id="nXT7cmKq0sEsVXdaDgDs-17" value="" style="shape=image;verticalLabelPosition=bottom;labelBackgroundColor=default;verticalAlign=top;aspect=fixed;imageAspect=0;image=data:image/png,iVBORw0KGgoAAAANSUhEUgAAAYYAAACBCAMAAADzLO3bAAAAwFBMVEX///9wcHBmLJFtbW1qampoaGhycnJ3d3f39/eJiYnb29tkKZDz8/OOjo6qqqpjJo/r6+tjY2NXAIhhIY78+v1dF4uamppeG4xZC4n39PmxsbHx7PXQ0NDHx8f9+/59fX3j4+OkpKSenp7r5PDFs9TBwcHk3Ovb0OTVyODz7/aymsa7ps20nciOaax5Sp6BWKNwOpiliL3KutiXdbNtNJaDW6Wdfrd0QZuTbrClir3e1eZ6TZ6/q8/Vy9/NwdmtksLXZTR9AAAVH0lEQVR4nO1diXqquhpVBieqWDASZ1ucrUMdW9vdvv9b3UxAgIBibbvv2azvO/tUDAGyyD8nZjIpUqRIkSJFihQpUqRIkSJFihQpUvwMar99AykQXtfHke9A93DcN37pZv5Z2KZuHXxHxoYG33/pbv5ZtCwTPPuO/Elp+AUM3hYt34HuwVyk+uK3MFmbn799Dylahq7Bp9++i38GI9OYsz+n/PEBkCR9zx852eyPxmE/+Ylb+5ewNDVA/rCPhjT2jo8MTeJ1de1oGMyCeoYmTC3Y22Jl6Sb5Y2FJ+pob3SfTWnEfP9HsgJSmg6UZKQ23RWux/MD/b6w1STKIjTT9mGDLqEW9uK5NhvzFRDSQlpnRUToI+0rxdSyAZh7xiP/RIFw7eiAzXhvGCzq8MXRTY5ZsdxrRR4ovw16s3/D7P5V0STLf2NHpDn0C+OWfrxanX7y9fwf0Xf+DlADigb34E4g/gV+8q38UY0yDZjEd/AHJp9+9pf86bCds8b49uMbqytI0sGUfpmukmj3DtTU50bjGaPDnx+7yP47aQZeo63aApgk+2OHpdrc71DKt+eEJ6Yrx0gAvTkhpI0G4x9RNTGC8/sY9/wcxh5pmYLU7NpDk0d/c+N0UWUIDDZiWNUOWrDtlMlMT62s8UVZojhi2qNMUl2K+HZD/Y1cA4BD2gKiDNRru02w7I+7CCWr4GNzgD635dobp2hBFsUPt3hAfBvUrGuOR+DIpYrExTDIH6GzAY3iiswF5zpZlWiYO6GGKnCmykdDEAK/MbNLWaK7MDROsaHd7mDwbUSjc8oH+PzEHzB3uPps7Oi+eDTTOf9CsIFPAQNpa1wgNGvLYRib5Gw4yXayvIdEJm+2MyrCGIZmLi69daA/rxV4vn+/1Hm/+YP9faGnGjon7Wpcd2xxeT5kuFjVsXuwYDVIrs6UTQ9shy2oPwWvX11t3B4xL8xKlek5VZIRsVpbVqnu8XXmsdL5/gqDLPHTuvv0yl6I76gqPtyQ69thbY2Ovr6gewLBawrPs+eCy3FyhrqLxd6GU2PF2XlUURZU71zzL5Sixywy/9zJfAnHWWs4UMNHgQp2oaCSf9g4NX8uEVvNKlofKhr3jkHPf/PJjxKD9M5e5AjNJo37Z3IJwgRTvnk4BE5ukJwkCaGJD6dWiE2OJ/v48wiVTyPZEPDsicJeVfSxklQdyvOodvu/f7tlCl5fd66il881/EM/IUAJYu+6xcWqaduZk4RdfN2gAdTIg8e5MAytmCdtUtTXS4TrN/hwMaMwSXK0YYCErF8nxijdH5PptH5DHUPUuU/6+yyQH1QTIByPeAOJhj/y4HQBgHXTLWnsALJyZO9B5YaA58oRPMsbCnkVo32eDyJEvfPTc8PEC4C+T/3vUNE5CEzN0nFnozDZFw18bb0RDO5oQRwNIrtAietsiJtLkksR0aDIgYFOp0OO+kL/PWvJdpnq+/fdjtt5jn62xRCOpgW5mzewjeM4bnhoSM59qVG9bc9wNNPZnlfcdPxkUJZvLIVWAZbSfhps8nxD8ZXJ/Aw0zQzNJznksIQn04dqm2EU4A0tzZ8MAKRYdR5WeAPHszqCjciw8lqqFQrVaIrKh7o0P0xbfggdOBfW+7zKX44jeY0hkTGszwGpgQl9ya3vmRFc3kEDTfK0dsS/+iY6Bs7qaU8SK3z9oewSp3+g5lLwbUP8Kz+HFkjTLp4Wfoa7pYHne/pweLdQS0nqAhk1E0Ria2Mg6g0f3nWd2qocHhwflWy2YinuZb5xzCWAvoelU400n8zFO9y+Oq9dLSl4ar2/r1Tv2wwcnp/3HYnveYCrGWO0VBQc4lPtvNFe9y8hq+ZftJMffaoycl3ezgxY84kG8uNSihvsY7ZFrt/4IfhdDpEfDfXgU+g/FXvGxfektXIt+BV2m/u2XOYMRgH5ZlBmTgKpuJS13aTF/LjAJZst9pFzzaMgJjdIfCnz/BfH1d+BZNDUi1lfUYbCS1n49s+jG2nf0BPXo0uNzNPw7OEHA0paN1+XyteZF8o4Je2L0SQYmczRqOP3rcB51SkqDi9OM+WdboOvgcDUNXZeGVqb2YlpH5kV/7laR4i2lIQTqDAPbSSSYSYUSS5BKEHkSONbn1FTG+NIpDSHYhAZoZz5Y2j9RwBrhBGhWFIkgEhWEIZsphJSGELq4LFXHVcMDACyoXx4mdYDOMy0S776ChoTXuuu3O81mc9hu9+MN/moJt2t22qWrQ0bkUsNOu5/kpCo5qZ38ohOAhpEMfmsz34gTovGw54cZ6eAZrwmKC0bd1Qm4wFGZHqk7blwT/f3QfED/VkJnV5s9RVFJ8lLFWezisCSeTJ2ijNooCm2dKzfbwXZDeplH9K+wh+rQ6QL9J5eFOetKvf6I7/TR/bLazLP7U3LNpExMN4NblcZvDYNMpz8Dcbl3SZVpDYDHA4XKnOa7HBpehXi494Fzq2U09FkeMnrmcsgBK1QUNdyu6B9J9zKKKM7dD1xKVtWHULPCPfb2URf3LCp1V7/nzlLUC9Or9hJuXT36vgTLSAPzAmwWy+cx9snxh08DGMJqpZI/Ac09KItz3uW95/Cf+nAvyFHgEQpkkzuq8BqoHR+k8i4TjnMX6oJLhUe14ETrFTpvK8Gz1Mtit5opgRf29wLH8+BbbPs47KGum05pTEvTJE0TWUqRNDiptigaCr3IM+U83/AhnNdzG3IDHkNDSRFfSu35W7o0kDRqsMSBPMElPJwArbrAeKeZz/Mh6gi80kwcpD4DTqhqZjIa2BhF0BDDgj9n/aBGtsvydEXT0InkUZb7fEOXBtxxWzhXQ/FjARqW7i7jYVUv2jr+lMiuWMpOZxWUeHGosGgsmgZWpxRBw2M0C1mFkxbDGBZ8aaRIGqJZwDzw8WCPhvtMM+IstX9+8DaSeWTxjCPLfBrnzxLB1jQ/jfODOAMXTQNL8ohpKPGjKwe0vOop6btcTDvfqxlFQymGBdwl19ijQS5HPZZySU3o9OSYp85skC44S9SRMxuWZxrGzAaq58Q0lDkDJNdDtmaxl3NtGaXvtmtyWT25V8bt8q7Z5MvmRdBw57s/YrL6hI3c8yzfAmd2Rz1VNnupezrasBQy1g3XrhVZmJfpltK9isEPv0rB7BghDV4NmZwdslGrlobFHBlhroDDy/QrFdburt+p50k7hZcoETSU+dkjFx+GnSY7m0H1vJkCP/UYbaipX8Er8cVobk7mYAAkxrsLQDKf1xZE2pKJtLK17GZqm9kmupdCCaPNvdzDfokiRkV7FQQ+4ZypdorIbvc0b99jwZdgvmvXkX/gcxDENPDlU8oj+6LQ4Y0gT9oHaZDVXrNUrfYr/OSITajbiyXToAMDh5Emmdrsbff2ef1i/9Feg9phmqntoQUXrB97HhEZiY4pCWlw6yjClke/rnrugFtPEK62wP4t/1lMQ457P7jxuytyhRzu5QI0qD1HR5XyXDdxPtwr0FmygRSHkaBqrfW12mB7hIMYpHyPJRpaOjDEtWMxNPQENLiiQhXkLPveeDWj6UI9+yaIkAauLMQ/nQpcedu9095PA+/dtTkVFWeyPgON0UCqkqznmLbJQKLeJi2umQBWyBdCQhrc5kp8zYxLw/nyVyEN3m0FO+AqnBVHO/A0yIrvBeF0VBwN9mrHlPHE0DTdGiGp8rmdJQ+ucl1uPicNVu9t0c6naxhR1nrtbDhT2uUZSmcLIkU0VDnR04/s2vUCfbPB396rw4p/IbquFhis9SWSHHPTMq2rnWjkhuuAVHXYpqmbOqs1aL1H7OeQkAYvIqs8xhmAQ+/pe/34+xXRwFkCoRopbsydgn/uEGczn+0pArVGDcsPYvgb51MFYmxIykg3W5nRdrk9Wy6WkAbeHcg3o/MMnJcnyw/9uDsQ0eCxLdBB3gvuqA2OhnygcSk5DQTM7j/rfkVhyao6sJK5IGORkAbeiZaVXD0qqVLlxQQy+4f9yDsQ0cAdC1Ptudcy84xvR4NTtO0GM+AFJwlgSwEverONDZonNFh9dd7YQJeLTaFbVPa3Qz5FJZTwoRDQcOedKBg7b9Cd2NStaBhJ5o7KjxorB9D0sycJEaThE5owrrIgIQ2ZZjBiJytKTlDYVxK0E6fOBDT0PbEjMva9e2Y3disadrpksmqYLS35SrCk2Y8jJ5RYiClu/72kNGT804F9r8qVoHSqC2JWsqrWQ3NHQINn7YvcE678+Z7e841oaFmSmxVo6WSZW+KqDAcTpqLp0DdItf4taeirAh5Qk/ti33d6RF5CVvOBkRXR4I5d0PAh8OwEVnd7s9lgaqYjzEdLAMDy+t1HBhZeJufomrkBYhckJqYhU5KFPGTle38oOSo/JN8XfaJJQANn7vYF9+zRwKrQb0WDvbTecC3A4DCz8YK2L+05Mv0YcIGL0yDWFUxOQ6ZaFE8IZML6RX9FnItGM+JMhLX5SzQw2/IFmpbF/Kxrp4NjpM7Wy0s2LrmCBiQ0iuIksZz391HF4VRRQ56Hv2g2UJBFVkQ32wtgXBNeqr3ujN0rVjIvUNMv2TLjKhpomFQwwkowYHCH65nC7WTOHfiSbqBn3JaGuUXqhxs4DoHXgiauzmi8IRdcA8duZoQZ1Xbni56upAGhVOnJIekkWOhfavayalCfKF7OJrml9PBdKpqCLEfHs4HtzQCSViuxqgzwyTZY0s5LtutpQOgPy3m/eBI/a7XzGJwU3nSI9xvCBYO8a6jSA7ehYTxgw7UApmWOMzYrrNcTTofG0s1jT7HZqjspvFsarAEUSg++1KQg+EDRR+JJWD0Q70ULliUW3DOcMO9NaBgYwKSKtfa0OJycbQKSlwW4+/0YeAkRABo1mBqLdbQf/VUaEApDLscVt/1Im0udea/5mZhSOGjVd2NKTgrhJjQcTMnwhaHd6op91CliuIEQTN9oPmdzbAO1iNRb5iY04NSkJyZi1zZz0X93UM5EWMPpJc5QYl/ehIZ3A1h+sfFMZXziYPcnEFVlfBj6N9OQqXpN46t23ct50uZMviEklQre3HMWr95GN0zmAVXa2ANch5rYYq3tSVVHQKXUXvfRPd2GBi45KtKpHlyPIJ4GLvsWqmsRUHTjfMPI9Z7ni+XLhqxS/7gsuNT6s0En12Yr6e2JeXD28/b8FjIJaahGpHq8ig0mlMLV7wRexUasUOJz0YHR427LFYCFcF7UwRU0LCzL3WaYrFcbr6EFd5sLTp1rEAC8+rnbcNzoxtoy4dlzE9JQus8Lhb/bjVN5mZUrIsK82eAGoIQ0cDuqBMQcVx2pOFfwiidvQMMAOlu+bJ7f8WDSbfV0cL4+YGBgpW6t+MIavJf6+XB5QhrQMKq9YWiAOd1AZQiy/JVsKPjNCy+XzYg6Jfeor+ClUBcZWzelYWbR/ahqe2iSqj22sNM8bzDR/DXx9xqH9ZEsRscbS5tnN5+5olxMVrMPfoFd8Bwq5jcQ4aPIwR0YKsFoUCaKBt8GQ2Wnsa9qz50Mt6VhbGg63lByju0dgIaSuQHa7px6ONE1EWTUVwD1QkylBfJHvlISIKKBjTdynesdZ+VhtZkLSXJmVMpKttwpsXZ3HS/0zQUBI3wE365aSu+hOWzWsz4H0JOON6Uhs1kfsSwndWNYnLg18udCQ2OHhhf6Iw8skT25YCFdMhq4VLSsKnKuWK8Xc3w4w3GO67522V6PtBNUekXSUPXV1ePVcYGKbs6SvS0NDG6dl1OkgYXSYLF8DmchPg7L7R8kxtgmb0ik/SGMXP57V8lo8HQAezT/IkZvbAI7+AXbZbOxEVaCuFUm/hjt99DQ0i3kNNh4uTpZpY5UdJcuaAsmELaGiY4ekFohg69L04yN9/AO7F0Sh2Q0hBL9ATj7SnPnittx5lZk4CJq3Q5lgW/7LTRkWofjCxHqExNYQN94bjWZD09vuwXxr9kyOWxdbaFlgh02qXAwybo8Z5SMhvg3NHvvaOS+OO3msnDJah9klkVeTfE3/R4aPDQ+5h9Tb3NoLKlqR+wpk4wOC6jquKZj/HQYUEk0GmwSVOUno+GuHLE2kzwnV8RbiUi7hVmIC+O15YiVoGX/vd6Yhm5EmZ3N9lnF6wpZAQ38cMmRrGv2E2BIGsyoVnLiTLSsFn1rpobCtBup9fNH6+KiqXf1cB+og6AHydEQ3HLiChpGx5DHbM+fTt66QmyQGq5t6hT4kYBqI2wUbSIWH/pQJBspEDskSEPO+Ubx7RJQaNfzeH8G/9DI4T0CSg95WQ22U/LNwHW8y4iKv0tl37ySFTXUAabB7SNEg/uVeikNL5b7259sVCcWsOA70tDUZoKbzAg6E6PrTAzrkGlsDeONLSUdzNnPxBmmcf5Hr9qVSgWZ5OjfUER5WHEQWpVfatZ7ORlvl4EXzMn5ckSNan/I2tF1dvliJZyOiL4MRXVYzpNL4R56j8ISzKbbR/ApCk3ygPgr8S2G8QLoj04i81Siy6Xw7x7iVOZIxwva8Pbpjm2KXAS8tR5efC41MlsktcwlPqOxhIBuozSHl+wgcz2q/VJnOBx2OqX4HWTuaLthp1S9dmvJAuqiQ3q4soNEGC32VCjZuk6WgtJ9rvAWuaPFzlp/4pDRiuWpsfFqv0hAWkwzXei0wxv3EQ8c780KV9evoEtBf++QJKLJ8FrETLVHVE7ZljMx6FEsirqULmyv4kgIW1/VGKUsfAktydRIXOjJ0HXohufGz9sNrmGSrPWsgbT33HWr9xb22TBPrZ1lgfR3326D8ep4IFbo+3715P7SIbDozjAtGw34xgTAdAyr1goaR6qP7U9B0CPFdfBWxLk+QXeNvTXI3nRSqu3tDdO1Uwn0MyDRIgmwvCb16GD6Q9E/iBNWvg2SfnBmQ4t4dPTHfj7mqRj6AWwBwKbnwDC5ao1XrL3Jpy0E53POKa7E6Ik5X7i0lbgCk8OWC0/MlzTZ2TLclW7d9MdYb40pAAZ9x4krwO/rM9nOOH2MN9ElQVaclUinxY1xAs7Y28DU+a0WNvhHcLmg6gqaBqn9tk3t6pWLKcSo6e42F6f9iq/7whui+378an6gc6BxjF/nluIKdMcRBRk43Cr+DTL7PZVJP4YxsoxezjdL8T04vbPpYQ+YDXX6yn4/Ka7CxACBupeZYST9hYcUX8Wr5Ww17ADp6it3a01xNT4MAP0J5wOEq1+6mX8Yf94D5lHj/f1WPzOQIkWKFClSpEiRIkWKFClSpEiR4i/H/wATO7XHzZtdEgAAAABJRU5ErkJggg==;" vertex="1" parent="1">
          <mxGeometry x="171.03" y="59" width="55.94" height="18.5" as="geometry" />
        </mxCell>
        <mxCell id="nXT7cmKq0sEsVXdaDgDs-18" value="" style="shape=image;verticalLabelPosition=bottom;labelBackgroundColor=default;verticalAlign=top;aspect=fixed;imageAspect=0;image=data:image/png,iVBORw0KGgoAAAANSUhEUgAAAYYAAACBCAMAAADzLO3bAAAAwFBMVEX///9wcHBmLJFtbW1qampoaGhycnJ3d3f39/eJiYnb29tkKZDz8/OOjo6qqqpjJo/r6+tjY2NXAIhhIY78+v1dF4uamppeG4xZC4n39PmxsbHx7PXQ0NDHx8f9+/59fX3j4+OkpKSenp7r5PDFs9TBwcHk3Ovb0OTVyODz7/aymsa7ps20nciOaax5Sp6BWKNwOpiliL3KutiXdbNtNJaDW6Wdfrd0QZuTbrClir3e1eZ6TZ6/q8/Vy9/NwdmtksLXZTR9AAAVH0lEQVR4nO1diXqquhpVBieqWDASZ1ucrUMdW9vdvv9b3UxAgIBibbvv2azvO/tUDAGyyD8nZjIpUqRIkSJFihQpUqRIkSJFihQpUvwMar99AykQXtfHke9A93DcN37pZv5Z2KZuHXxHxoYG33/pbv5ZtCwTPPuO/Elp+AUM3hYt34HuwVyk+uK3MFmbn799Dylahq7Bp9++i38GI9OYsz+n/PEBkCR9zx852eyPxmE/+Ylb+5ewNDVA/rCPhjT2jo8MTeJ1de1oGMyCeoYmTC3Y22Jl6Sb5Y2FJ+pob3SfTWnEfP9HsgJSmg6UZKQ23RWux/MD/b6w1STKIjTT9mGDLqEW9uK5NhvzFRDSQlpnRUToI+0rxdSyAZh7xiP/RIFw7eiAzXhvGCzq8MXRTY5ZsdxrRR4ovw16s3/D7P5V0STLf2NHpDn0C+OWfrxanX7y9fwf0Xf+DlADigb34E4g/gV+8q38UY0yDZjEd/AHJp9+9pf86bCds8b49uMbqytI0sGUfpmukmj3DtTU50bjGaPDnx+7yP47aQZeo63aApgk+2OHpdrc71DKt+eEJ6Yrx0gAvTkhpI0G4x9RNTGC8/sY9/wcxh5pmYLU7NpDk0d/c+N0UWUIDDZiWNUOWrDtlMlMT62s8UVZojhi2qNMUl2K+HZD/Y1cA4BD2gKiDNRru02w7I+7CCWr4GNzgD635dobp2hBFsUPt3hAfBvUrGuOR+DIpYrExTDIH6GzAY3iiswF5zpZlWiYO6GGKnCmykdDEAK/MbNLWaK7MDROsaHd7mDwbUSjc8oH+PzEHzB3uPps7Oi+eDTTOf9CsIFPAQNpa1wgNGvLYRib5Gw4yXayvIdEJm+2MyrCGIZmLi69daA/rxV4vn+/1Hm/+YP9faGnGjon7Wpcd2xxeT5kuFjVsXuwYDVIrs6UTQ9shy2oPwWvX11t3B4xL8xKlek5VZIRsVpbVqnu8XXmsdL5/gqDLPHTuvv0yl6I76gqPtyQ69thbY2Ovr6gewLBawrPs+eCy3FyhrqLxd6GU2PF2XlUURZU71zzL5Sixywy/9zJfAnHWWs4UMNHgQp2oaCSf9g4NX8uEVvNKlofKhr3jkHPf/PJjxKD9M5e5AjNJo37Z3IJwgRTvnk4BE5ukJwkCaGJD6dWiE2OJ/v48wiVTyPZEPDsicJeVfSxklQdyvOodvu/f7tlCl5fd66il881/EM/IUAJYu+6xcWqaduZk4RdfN2gAdTIg8e5MAytmCdtUtTXS4TrN/hwMaMwSXK0YYCErF8nxijdH5PptH5DHUPUuU/6+yyQH1QTIByPeAOJhj/y4HQBgHXTLWnsALJyZO9B5YaA58oRPMsbCnkVo32eDyJEvfPTc8PEC4C+T/3vUNE5CEzN0nFnozDZFw18bb0RDO5oQRwNIrtAietsiJtLkksR0aDIgYFOp0OO+kL/PWvJdpnq+/fdjtt5jn62xRCOpgW5mzewjeM4bnhoSM59qVG9bc9wNNPZnlfcdPxkUJZvLIVWAZbSfhps8nxD8ZXJ/Aw0zQzNJznksIQn04dqm2EU4A0tzZ8MAKRYdR5WeAPHszqCjciw8lqqFQrVaIrKh7o0P0xbfggdOBfW+7zKX44jeY0hkTGszwGpgQl9ya3vmRFc3kEDTfK0dsS/+iY6Bs7qaU8SK3z9oewSp3+g5lLwbUP8Kz+HFkjTLp4Wfoa7pYHne/pweLdQS0nqAhk1E0Ria2Mg6g0f3nWd2qocHhwflWy2YinuZb5xzCWAvoelU400n8zFO9y+Oq9dLSl4ar2/r1Tv2wwcnp/3HYnveYCrGWO0VBQc4lPtvNFe9y8hq+ZftJMffaoycl3ezgxY84kG8uNSihvsY7ZFrt/4IfhdDpEfDfXgU+g/FXvGxfektXIt+BV2m/u2XOYMRgH5ZlBmTgKpuJS13aTF/LjAJZst9pFzzaMgJjdIfCnz/BfH1d+BZNDUi1lfUYbCS1n49s+jG2nf0BPXo0uNzNPw7OEHA0paN1+XyteZF8o4Je2L0SQYmczRqOP3rcB51SkqDi9OM+WdboOvgcDUNXZeGVqb2YlpH5kV/7laR4i2lIQTqDAPbSSSYSYUSS5BKEHkSONbn1FTG+NIpDSHYhAZoZz5Y2j9RwBrhBGhWFIkgEhWEIZsphJSGELq4LFXHVcMDACyoXx4mdYDOMy0S776ChoTXuuu3O81mc9hu9+MN/moJt2t22qWrQ0bkUsNOu5/kpCo5qZ38ohOAhpEMfmsz34gTovGw54cZ6eAZrwmKC0bd1Qm4wFGZHqk7blwT/f3QfED/VkJnV5s9RVFJ8lLFWezisCSeTJ2ijNooCm2dKzfbwXZDeplH9K+wh+rQ6QL9J5eFOetKvf6I7/TR/bLazLP7U3LNpExMN4NblcZvDYNMpz8Dcbl3SZVpDYDHA4XKnOa7HBpehXi494Fzq2U09FkeMnrmcsgBK1QUNdyu6B9J9zKKKM7dD1xKVtWHULPCPfb2URf3LCp1V7/nzlLUC9Or9hJuXT36vgTLSAPzAmwWy+cx9snxh08DGMJqpZI/Ac09KItz3uW95/Cf+nAvyFHgEQpkkzuq8BqoHR+k8i4TjnMX6oJLhUe14ETrFTpvK8Gz1Mtit5opgRf29wLH8+BbbPs47KGum05pTEvTJE0TWUqRNDiptigaCr3IM+U83/AhnNdzG3IDHkNDSRFfSu35W7o0kDRqsMSBPMElPJwArbrAeKeZz/Mh6gi80kwcpD4DTqhqZjIa2BhF0BDDgj9n/aBGtsvydEXT0InkUZb7fEOXBtxxWzhXQ/FjARqW7i7jYVUv2jr+lMiuWMpOZxWUeHGosGgsmgZWpxRBw2M0C1mFkxbDGBZ8aaRIGqJZwDzw8WCPhvtMM+IstX9+8DaSeWTxjCPLfBrnzxLB1jQ/jfODOAMXTQNL8ohpKPGjKwe0vOop6btcTDvfqxlFQymGBdwl19ijQS5HPZZySU3o9OSYp85skC44S9SRMxuWZxrGzAaq58Q0lDkDJNdDtmaxl3NtGaXvtmtyWT25V8bt8q7Z5MvmRdBw57s/YrL6hI3c8yzfAmd2Rz1VNnupezrasBQy1g3XrhVZmJfpltK9isEPv0rB7BghDV4NmZwdslGrlobFHBlhroDDy/QrFdburt+p50k7hZcoETSU+dkjFx+GnSY7m0H1vJkCP/UYbaipX8Er8cVobk7mYAAkxrsLQDKf1xZE2pKJtLK17GZqm9kmupdCCaPNvdzDfokiRkV7FQQ+4ZypdorIbvc0b99jwZdgvmvXkX/gcxDENPDlU8oj+6LQ4Y0gT9oHaZDVXrNUrfYr/OSITajbiyXToAMDh5Emmdrsbff2ef1i/9Feg9phmqntoQUXrB97HhEZiY4pCWlw6yjClke/rnrugFtPEK62wP4t/1lMQ457P7jxuytyhRzu5QI0qD1HR5XyXDdxPtwr0FmygRSHkaBqrfW12mB7hIMYpHyPJRpaOjDEtWMxNPQENLiiQhXkLPveeDWj6UI9+yaIkAauLMQ/nQpcedu9095PA+/dtTkVFWeyPgON0UCqkqznmLbJQKLeJi2umQBWyBdCQhrc5kp8zYxLw/nyVyEN3m0FO+AqnBVHO/A0yIrvBeF0VBwN9mrHlPHE0DTdGiGp8rmdJQ+ucl1uPicNVu9t0c6naxhR1nrtbDhT2uUZSmcLIkU0VDnR04/s2vUCfbPB396rw4p/IbquFhis9SWSHHPTMq2rnWjkhuuAVHXYpqmbOqs1aL1H7OeQkAYvIqs8xhmAQ+/pe/34+xXRwFkCoRopbsydgn/uEGczn+0pArVGDcsPYvgb51MFYmxIykg3W5nRdrk9Wy6WkAbeHcg3o/MMnJcnyw/9uDsQ0eCxLdBB3gvuqA2OhnygcSk5DQTM7j/rfkVhyao6sJK5IGORkAbeiZaVXD0qqVLlxQQy+4f9yDsQ0cAdC1Ptudcy84xvR4NTtO0GM+AFJwlgSwEverONDZonNFh9dd7YQJeLTaFbVPa3Qz5FJZTwoRDQcOedKBg7b9Cd2NStaBhJ5o7KjxorB9D0sycJEaThE5owrrIgIQ2ZZjBiJytKTlDYVxK0E6fOBDT0PbEjMva9e2Y3disadrpksmqYLS35SrCk2Y8jJ5RYiClu/72kNGT804F9r8qVoHSqC2JWsqrWQ3NHQINn7YvcE678+Z7e841oaFmSmxVo6WSZW+KqDAcTpqLp0DdItf4taeirAh5Qk/ti33d6RF5CVvOBkRXR4I5d0PAh8OwEVnd7s9lgaqYjzEdLAMDy+t1HBhZeJufomrkBYhckJqYhU5KFPGTle38oOSo/JN8XfaJJQANn7vYF9+zRwKrQb0WDvbTecC3A4DCz8YK2L+05Mv0YcIGL0yDWFUxOQ6ZaFE8IZML6RX9FnItGM+JMhLX5SzQw2/IFmpbF/Kxrp4NjpM7Wy0s2LrmCBiQ0iuIksZz391HF4VRRQ56Hv2g2UJBFVkQ32wtgXBNeqr3ujN0rVjIvUNMv2TLjKhpomFQwwkowYHCH65nC7WTOHfiSbqBn3JaGuUXqhxs4DoHXgiauzmi8IRdcA8duZoQZ1Xbni56upAGhVOnJIekkWOhfavayalCfKF7OJrml9PBdKpqCLEfHs4HtzQCSViuxqgzwyTZY0s5LtutpQOgPy3m/eBI/a7XzGJwU3nSI9xvCBYO8a6jSA7ehYTxgw7UApmWOMzYrrNcTTofG0s1jT7HZqjspvFsarAEUSg++1KQg+EDRR+JJWD0Q70ULliUW3DOcMO9NaBgYwKSKtfa0OJycbQKSlwW4+/0YeAkRABo1mBqLdbQf/VUaEApDLscVt/1Im0udea/5mZhSOGjVd2NKTgrhJjQcTMnwhaHd6op91CliuIEQTN9oPmdzbAO1iNRb5iY04NSkJyZi1zZz0X93UM5EWMPpJc5QYl/ehIZ3A1h+sfFMZXziYPcnEFVlfBj6N9OQqXpN46t23ct50uZMviEklQre3HMWr95GN0zmAVXa2ANch5rYYq3tSVVHQKXUXvfRPd2GBi45KtKpHlyPIJ4GLvsWqmsRUHTjfMPI9Z7ni+XLhqxS/7gsuNT6s0En12Yr6e2JeXD28/b8FjIJaahGpHq8ig0mlMLV7wRexUasUOJz0YHR427LFYCFcF7UwRU0LCzL3WaYrFcbr6EFd5sLTp1rEAC8+rnbcNzoxtoy4dlzE9JQus8Lhb/bjVN5mZUrIsK82eAGoIQ0cDuqBMQcVx2pOFfwiidvQMMAOlu+bJ7f8WDSbfV0cL4+YGBgpW6t+MIavJf6+XB5QhrQMKq9YWiAOd1AZQiy/JVsKPjNCy+XzYg6Jfeor+ClUBcZWzelYWbR/ahqe2iSqj22sNM8bzDR/DXx9xqH9ZEsRscbS5tnN5+5olxMVrMPfoFd8Bwq5jcQ4aPIwR0YKsFoUCaKBt8GQ2Wnsa9qz50Mt6VhbGg63lByju0dgIaSuQHa7px6ONE1EWTUVwD1QkylBfJHvlISIKKBjTdynesdZ+VhtZkLSXJmVMpKttwpsXZ3HS/0zQUBI3wE365aSu+hOWzWsz4H0JOON6Uhs1kfsSwndWNYnLg18udCQ2OHhhf6Iw8skT25YCFdMhq4VLSsKnKuWK8Xc3w4w3GO67522V6PtBNUekXSUPXV1ePVcYGKbs6SvS0NDG6dl1OkgYXSYLF8DmchPg7L7R8kxtgmb0ik/SGMXP57V8lo8HQAezT/IkZvbAI7+AXbZbOxEVaCuFUm/hjt99DQ0i3kNNh4uTpZpY5UdJcuaAsmELaGiY4ekFohg69L04yN9/AO7F0Sh2Q0hBL9ATj7SnPnittx5lZk4CJq3Q5lgW/7LTRkWofjCxHqExNYQN94bjWZD09vuwXxr9kyOWxdbaFlgh02qXAwybo8Z5SMhvg3NHvvaOS+OO3msnDJah9klkVeTfE3/R4aPDQ+5h9Tb3NoLKlqR+wpk4wOC6jquKZj/HQYUEk0GmwSVOUno+GuHLE2kzwnV8RbiUi7hVmIC+O15YiVoGX/vd6Yhm5EmZ3N9lnF6wpZAQ38cMmRrGv2E2BIGsyoVnLiTLSsFn1rpobCtBup9fNH6+KiqXf1cB+og6AHydEQ3HLiChpGx5DHbM+fTt66QmyQGq5t6hT4kYBqI2wUbSIWH/pQJBspEDskSEPO+Ubx7RJQaNfzeH8G/9DI4T0CSg95WQ22U/LNwHW8y4iKv0tl37ySFTXUAabB7SNEg/uVeikNL5b7259sVCcWsOA70tDUZoKbzAg6E6PrTAzrkGlsDeONLSUdzNnPxBmmcf5Hr9qVSgWZ5OjfUER5WHEQWpVfatZ7ORlvl4EXzMn5ckSNan/I2tF1dvliJZyOiL4MRXVYzpNL4R56j8ISzKbbR/ApCk3ygPgr8S2G8QLoj04i81Siy6Xw7x7iVOZIxwva8Pbpjm2KXAS8tR5efC41MlsktcwlPqOxhIBuozSHl+wgcz2q/VJnOBx2OqX4HWTuaLthp1S9dmvJAuqiQ3q4soNEGC32VCjZuk6WgtJ9rvAWuaPFzlp/4pDRiuWpsfFqv0hAWkwzXei0wxv3EQ8c780KV9evoEtBf++QJKLJ8FrETLVHVE7ZljMx6FEsirqULmyv4kgIW1/VGKUsfAktydRIXOjJ0HXohufGz9sNrmGSrPWsgbT33HWr9xb22TBPrZ1lgfR3326D8ep4IFbo+3715P7SIbDozjAtGw34xgTAdAyr1goaR6qP7U9B0CPFdfBWxLk+QXeNvTXI3nRSqu3tDdO1Uwn0MyDRIgmwvCb16GD6Q9E/iBNWvg2SfnBmQ4t4dPTHfj7mqRj6AWwBwKbnwDC5ao1XrL3Jpy0E53POKa7E6Ik5X7i0lbgCk8OWC0/MlzTZ2TLclW7d9MdYb40pAAZ9x4krwO/rM9nOOH2MN9ElQVaclUinxY1xAs7Y28DU+a0WNvhHcLmg6gqaBqn9tk3t6pWLKcSo6e42F6f9iq/7whui+378an6gc6BxjF/nluIKdMcRBRk43Cr+DTL7PZVJP4YxsoxezjdL8T04vbPpYQ+YDXX6yn4/Ka7CxACBupeZYST9hYcUX8Wr5Ww17ADp6it3a01xNT4MAP0J5wOEq1+6mX8Yf94D5lHj/f1WPzOQIkWKFClSpEiRIkWKFClSpEiR4i/H/wATO7XHzZtdEgAAAABJRU5ErkJggg==;" vertex="1" parent="1">
          <mxGeometry x="172.03" y="187" width="55.94" height="18.5" as="geometry" />
        </mxCell>
        <mxCell id="nXT7cmKq0sEsVXdaDgDs-22" value="" style="shape=image;verticalLabelPosition=bottom;labelBackgroundColor=default;verticalAlign=top;aspect=fixed;imageAspect=0;image=data:image/png,iVBORw0KGgoAAAANSUhEUgAAAIAAAAB8CAYAAAChbripAAAABmJLR0QA/wD/AP+gvaeTAAAY4UlEQVR4nO2deWBU1fXHv+fNmkwmmWzDEmQRArITiLKERav81Cq0KgjS1rqidasLiIKldanWn/v2U+tSwA2U2oq2tLLIIgIiIRAiYQkEAoGEbGSSzP7O74+ZN3mZrJO8eTOJ+fyV+967753JO+/ec885917gJwQzEzNfysx/Y+Z8Zq5j5hJm3sfMzzDzqEjL2E0YYGaBmWcw8y5unW+ZeUakZe5GAZhZx8w3MvOBNrz4YHYz82xmpkj/jnDSJX8cM8cCuA3AAgDnBZ12nDzr2bM1z+E5etpriI8V3OelCp5Lx8QkmWOF4QCEoOv3AngGwGdEJIZfenXpUgrAzAkA7gbwewDWBueAinXZ9txnP60eXVXrtTRVv18PTdHjv04qHNlfdxEAQ9DpQwCeBfAhEbnCIH5E6BIKwMwpAO4BcB+ARPk5kVG2Icee99Qn5zJq7GJ8W+6XHC+ULZyVkHfZmJgMIgTXOQPgZQCvEVGdEvJHkk6tAMzcA8ADAO4FECs/5xVxcvXWmqOvfGG70OnmmPbcP8Ek2B6enbDv8nExwyhIsQCUAXgDwCtEVNme+0cDnVIBmHkAgPsBzAdglJ9zeXFixTpb8V/X2jK9IrRKPM9koNq7Z5h3z54SN1gQ0DPotA3A3wD8hYhOK/E8NelUCsDMIwEsBHAD0PDlOlx88L11NWXLvrZNEEVowvF8nZZcv7ksbtf8K8xpOg36B512AlgO4CkiKgrH88NBp1AAZs4A8CiAWQiS2VYn5r74j2rHlzvrMpnV+T0CQbx+atzO+35hthp0NDDotAvAKgB/JqKDasjTEaJaAZh5MoBFAK4OPldVK+Y9+XEVNu1zDFdfMh8CQbx6fOzuBbMSYk0GCpZDBPBvAH8iot0REK9NRJ0C+B0vVwNYDGBC0GnxTJV399LllXG7j7iGqi9d80waasxdMi/B0dOiubCJ0+sBLCWi7WrL1RpRowDMLAC4CsCfAIwNOu0uOO35fsnyyl6HT7nPV124EJg41JD72DyLo6dFk4nG/99tAJ4loi8jIFqTRFwBmFkPYC6AJQAGB512Hjrl2fPI3yr6HS/x9FJfuvYzor/+0NJ5lrMDe2knAI2M0hwAL8HnVIqodzFiCsDMJtS7a/s0PIfa3Uecu/+wouqC0iqvtckbdBL6WjVFS+ZajmWmG8ajsXdxP4DnAHxMRB71pYuAAjBzPICbATwCNBxTi8wVG3Icuc+srB59rq5pd21nJS1ZU7z0V5YjmemGTAQ5rQAUwuddfJuIHGrKpZoCMHMq6v30DV6uyDj7dbb90NMrqzJqHRz8z+lSJJmF8odnJ+y/bEzMGCIkBJ0uAfAWgBeJqFoNecKuAMzcD8CD8DX3we7aotVba469vMZ2kcvFxiZv0EUxGajm7hnm7NlT4y4QCMHdnORmfpWIKsIpR9gUgJkHwhecuQNBfZ/TxUfeXVdTsvxr23il3LWdlViDUHvPjLjds6fEpQsCgg3dGgDvwzdyKA7H8xVXAH9a1QIA8xBk/TpcnP/O2prqFRtsF4oqee06C5Kb+fYr4nrrNTQg6LQTwKcAniCiI0o+V7GXwMxZ8Bl2VwXfV3LXrtlR15STpBsZkndx4ayEuFgDBTu73ABWAniGiA4o8bwOK0BL7tqz5zx7//jBOe3Og86IuWsBQBCAKcONmDrCiP49tDAZCRU1Ig6ccGPdHjvyi9yRFK9JiMAzxsf+8OA18THmWGFE0GnJzfwEEe3q0HPaW5GZhwF4E8DUoFPeojLPtiXLqlLyjruGdUQ4JcgYqMejcywY2Kt5U2PTPgeeXlWF8urozPi6ZHTM/kfmJIgpZiE4a5kBfATgISIqbc+926UAzDwTvj5Jbty58k+6tz+2rLLvsRJPcB8WEa7MjMEff22BTtP6zyyp8uKu18tRWBIRf0ybGJeuP7T0Bkttn1TtGDR8d2cAXEpEP4Z6z5AVgJmnAlgHQC8dO1Xu3XHna+V9i8s9vUO9X7gYM1CPt+5NbtPLlyg668FvniuDzR6dLYHE6PP1+a/dlewNikCWAsgIdbQQnAHbIswcA+Bd1L98XrGhdsvMP5VMiKaXLxCwaHZCSC8fAM5L1eKWy+PCJJVy7D3quuDihaeH5hY6t8oOWwG8Fuq9QlIAAHMApEuFNdvtW17557lgGyDiTBxmxOA0XbvqXj/FBKM++keoIkO4+cXyySdKPfIQ87XMHJLBHaoCzJX+qHVy3pMrKyeHWF8Vpo4Ijrm0HaOeMH5I++urCTPo1pfLBjMg9xbOC+UebVYAf9g28LW/scZWHa7cu47Sv0fHnIv9rJ3HOVlhE5N35jtzZYcuC6V+KC3AWABSenXdP7fXjgnlQWqSEBtqw9YQS1zH6qvNe/+pkccSMvwzo9pEKL800NxX1ogH25trrwbUwS68o/XVJueocwgzpOihDkCbPa6hKMCkwAMLXOdCqNdNmBEZQnm1eFh2KKutdUNRgInSHxty7OYQ6nWjAtkFrhpZUVkFYOZBqM/eEb894Exv6fpu1Gddtl2eXDLJn2TbKm01dwMa5XRxga1WDKsCXHCeDpePi8GAHlrodaF3yL2TO2bFT8+IwZA+ofsRauyM3EIX1u6yo6za2yEZQmVHvjMdgAe+d2oBMBRAXmv1QlaAQ8We05A5g5Qk1kBYMteCy8fFRNQQ65WkQa+k9o1wLx1jxJ0/N+PNf9nw4caa1isoRJ1TNNmdnB9joAv8h7LQBgVoqw0QMAA37bOHZeyv1xJevysZV2RG9uUrgVFPeOCaeNwzo02z0RXjQJFLHhFskx3QqgIws9ScAAA27rX3DV201rntijiMPl/f+oWdiJumx2FcunpexW/2OeX9ljIKAN/XLwCAyCg9UeoNXnKlwxj1hHmXRH8QJlSIgFtVDC5tzLHLZ00NZObgqeyNaIsCBDTpVJnnaHsEa42xg/SI6QQBmPaQmW5QLbh0ptLbwyuyPBw8sdmL/YSkADvznc72CNYaPROjMqSgCBoB6GFR7/cVnfUWyoqtdgMtKgAzN3ArrstxprRbshbQa7vm1y/RnqFse9n2o1Oe0tQxBQCQgfrJHPa9R7sdQNHOumy7vN8f11pgqDUFCAz/qmrFQ24Pdy0zvQuSd8I1KCgwNK6l61tTgEATsveYu9OuhPVTQhQhVNhE+eSRFruB1hRAFgBymDoiWDfqkV3gtMmK7VMA/1JsaVLx2/32QQrI1o0KrN/jkLsgs1oKDLXUAtQHgNxccK5WDF4osZso5bs8xxD4AkOAb4HLIc1d25ICBAzAgtOeTrcA4k+ZOhfH2p1cIDvUbDfQphZgU66jaw/UuyD5Ra4SWXFSc9c1qQD+ZVwC+eUbc+yK+/+7CS+b9jnlof6QW4CJ8M/tFxllx854+ikoWzcq8E2uQx4YSmfmJhfbak4BAhpzusJT0Mw13UQxp8o8PUURUmCI0ExgqLmMoIACfJ/vtissWyO+zrZj79GGezDodYTUeA0G9NJi2kgjhp7Xvqle0YDVokGds+GE01oHo6omvJNQi8o8x/tZtdKczSwAXwRf00gBmFkD4CKpvG5PXVgCQHIqbCIqbM38M3KAd9bakJluwEPXxbd7zl8kefXOpCaPu9yMHw678OXOOqzfY4fIyj73uzynWzbLqUk7oKkuYDQAKYvBmVPgiooA0A+HnbjphTJ8nR32Bkk19DrCpGEGPHNzIpY9lKJ4WHxdjr2HrDiOufFKbE0pQEBTbHV80OnhqJkp6XQzHlteiR35YUlLiCjD++nxwcJUpCUrpwS5ha5BzJAyUw1oIjDUogLsPeqMugCQVwQeW16JmihfxKE9JJkFvHB7ErQhrmvQHKIITUVtyzOGmlKAgNNgw15HVM7/q6wR8dE3tZEWIyykp+lwzSTlFkvdc8QpX3G0ZQVg5r6o32ePv81zBO+GETX8e1fXsQWCuTZLOQVYv8chn8Y3KXgjzOAWIKAhLi8fq7CJyYpJojAnyzw4U6nu7Bu1GJymQ5JZmSnq3+U5BgOQ/lEpCFqSP/gp9QGgYs8pRSQIIyVVXVMBAKBXkjKLVNQ6Oc7haj4w1GwLsHV/9AeAxK5nBwbQKLhGxaFTrjOyYoPAUOAxzBwHYKRU3rDHnoYox5rQddPJSxTs3r7Z23xgSK5nE+D3DDJQXnDG018xCcKA1aJBbwXHzNHEibMeRbu3jXsd8mDeEP/eDQAaKkBAM0oqPAVq7cHXXqZndP5JpM2xZoeyWxKfLPOkiSKkpB6CbDc2uQIE+oZdh9xRvSlyrIFw0/SuN5cQAE5XePHJJuV9HCfLPIWyYuBjF4DAlm3jpYP/3WNvOnoRJSyea1FsmBRN2F2MBe9WwOFSOCoE4Lt8pzzc2lAB4DP+pCVGnLsPR+cMIIGAB66Jx5WZUemg7BDFFV7c+lJZ2JauX59tlyeEXMjsi/FI1qEsACQedrk5eH36iNPPqsXCWQmYODRqYlOKcPSMB1/trMPKzbVwupX/8iX2HXOlM6OWCCb4AkNjAWxvpAD7j7vKwyZFM+h1BGPQBEqDjmC1CBjQU4dpI42YOsKgWJBEbf68sgqnyhpa9Ta7iDOV3ubzIBTGK0JbVSvmJsYJGf5DWWhKATbuc6r+id0wzYT7fqHucipqklvoxuFTkd+VJOeos/qSUYHuMwvA8wIz9wYQGCdu3d8gmbCbLsSGPQ750GkyM5MA2RKwbi8Kz3byrVq7aZ4t+xsFhgYJkGWLnijxnIyEYN2oQ62DzU4Xy5f5mdRg/J9/yh29G+Z0owhlNlFu5I/XAgjM+i0u93RJ57rdxdi8z4GteQ4Ul3ths4tIjBMwOE2Hi0cZkZlu6LJu5WAqbKJLlnfYTwsgkDGSYtZ2uQD7mh11eONLW6OlW48ByD7iwsrNtRjRX49FsxMwrG/nSzkPlUSzIP+RiQKAQJMwZpCuy/wHRPaNvx//qKrVdXv3F7pw68tl+M/urptmJmG1CPJU8WIBwE6p1L+HdqhRT1EdCGorr6+pxufb2v5TXG7G0hWV+P5g10s5lxjVX39QryH5MD9HAPC5VCIg6eFZlu/VF01ZcgtdWLEh9IWavSKw9IMq2MMQjIkGnrrJUhV0aKUA32bEB6UjMycYL0zvo+vUE0Lf+NIGbuc7PHvOi9Vbu17K+Zwpph1pydrxskMfEdERgYi8AG6Db2dqEJFpxYIUMscInXJbmAqbiN2HO9aMd6XpZwAwuI/u2MLZCfIAXymABwF/OJiIvgWwQDqr19D5q5dYjwgCVBkVuL3KNbnZBc4OT7I8UORWtBtweyLXpZiMZFv2YAoTBeZ7egDMkTabDmRVENGrAN6TyikJwrj/vSVxK1SgtEq5iFjZuY7fi9nXFSiByEBphNLXBYL42RJrvkHXwPB7gIg2Ba4JqnMPgIAReMnomGk3XBK3HWHmh8NOeBXSgTqnMl9bnUOZ++wvdCkmU6i8OD95Sw+LRr6F3AdE9Lr8mgYKQEQOAL8E6leWeOia+FFD++rkEwwVp6pGxJcKJ0JGC8vXq7dtjJzrsmJ2ThlhmCY7lA3gjuDrGiXWEdFpALMAOH1lmJY/lBqTaKaK4GuV5JUvqnG8tGuFIr7aWYdN+xyqP3dwmvboo3MShwGBzO4SAL8gokbWbZOZlUS0HcD9UlkjoM+qR3oUhtMorK4TMf+VcuQUuFq/OMoRGfhkUy2e+Dh42B1+EmI1VSsWWjVEARe/G8D1RNRkpLfZCWhE9BYzZwCYDwDJ8cLYl25P2vz7tyumNVeno5RVe3HbK2W4eJQR0zNiMKi3rlGqWGtU1yljTJSe88IcE1rmcVWtiNxCF9bsqMPBk+pnAAkEcdXilCM6DTJlh+8loi3N1Wnxv+vfMGIDgCnSoZc+r97+4Tc1zS482E3keP2upM0ThxrlH+gyIrq5pTotqjgRuQFcD0BqPuiBa+MzMgbqD3RM1G6UZu60uK0Thxqnyg5tB3Bna/VabeOI6AyA2fAbhQBi3r4vOT7JLKiePdxN04zorz+0cFb8WNS36GcAzCaiVl2iberkiGgH/LYAAGgESvt0sfW4RkDXMts7IQkmofLd+5NjAEj7Objhe/ltWt+hzVYOEa0A8IZUTowTxr7+u6RtoQjbFdj4l5746vEerV+oAhoBnr8/Zj2u05B8Lee7/K79NhHqBLsHAGySChddYJw2/0qzKu7ibhrz1j2p2xLjhDGyQ68T0buh3CMkBfAbhbPgy6gCANzxc/OFmen6H0O5Tzcd56bpcdvGpuvkFv93AB4K9T4hT7ElonIA1wGQfLfGN+9JsSTHC2Wh3qub9jFqgD7/3pnxGbJDRQCuIaKQvWjtWomIiPYw8x0APgAAQUDvvy+x5k5fUhIfya3lRvbX49c/M2HMQD0sJgFVtSIKij34x/Y6rPPH+If00eHjRan4amcd3vtvDe6eaUbmIAMSTAJufP4sfjzhhkDA3ItNuC7LhN7JGlTWiNiwx4E3/1XdigThJyVeOPve/SnxqN/P0QHgOim8GyrtXoqKiD5k5nHwu4zNscLIN+9O2nLbK+VTW6kaFmZNNmHR9QnweBgb9zlw8qwHiWYBw/vqMXtybEABJHolabB8QQrKq0VszXPAZBTg8Tu6H51jwbVZsThV7lusgRm4LMOI4f2SIURwWQKtRnCvWmwtFgSMlh2+m4h2tfueHZRpAXxby18OABmDDFN/d7V565tf2aa0XE1Z0tN0WDQ7AdW1Im55qaxRUCm1icWkxqUbsGpLLZ5ffa5BAsm4dAOuzYrFoVNu3PJiWSAx5J3/2PDe/SkwxwiosUcmvv/O7xO3W0yC/AN7iYje78g9O6TP/nSyeQAC041uu9w8IWuYcV9H7hsqsybHQhCAt9famowoNpXcUVUj4tUvqhtlD80c75s9+/a/bQ2yghwuxv/9y4ZIccv/mLeNGmCQv/yNAB7u6H073KARUQWAawFImZS6l+9M6tkzSXOmhWqKMrK/z+zYfqDtuYAHT7mbXIplSB/f1IjsI43tqT1HIpMyftEQ4/67Z5jlAZ7jAOYSUYcdcYr0aES0F8CNABgABIJ15aLUMoO2dVekEphjfT8jlNSr5lK+4mIEeMWmo4p1TlY9ZTzVoil9466kZPhW9QAAO3xG31kl7q+YSUNEnwN4XiqbY4URyxaktNs4CQWb/2VZLSFMbWzmPdbYRWgEID628b8m1kCI0as3iVCrEdyrHkk9IwjoJTt8KxHtVuoZStu0jwBYKxUGp+km3zczvtlYtFLkFvqaayXWD5Li+GMHNR7Njh2k7uIp79+fvCPBJIySHXqOiD5R8hmKKgARiQB+BSCwe/Vvp8dNnDrCuFfJ5wTz2dY6iCJwx5VmyPbICdAjhJbhy52+4eIdPzc3+NqNesLvrjI3V01x7vtl/Jbh/XXy0dR6AIuVfo4yS1LLIKJKZp4JYAeAeAC6F+Yn9Z75x9LTpys9vVqp3i6OFLvx7OpzWDQ7ASsfScXmXAeKyrywmAQM76dDjV3E/FfbFr3+4bAT//iuDtdMisWnS6zYmGMHM/Cz0TEoPeebWh5uJgwx5P720jj5LJ5CADcoYfQFExa3BhEdAPBb1BuFqZ8tST1n0DVOSlSK1VtrcdvLZfjugBOZgw248VITpo40oMIm4tMtoWUcP72yCi9+Xg23hzFnmgmXj4vB5lwH7nuzPOwrlPdI0Ja8dleSFfVGXw2AmUQUFld7WC0aZn4KwBKpXFDs2Xb9M6Ut7mf/U0avJ8f6p3sWmAwkbdvL8A33Pg3XM8Pt2FwK4CupMLC3NmvBteE3Cjsr79+fukv28gHgmXC+fCDMCuA3CucBCISLb7gkbtIlo4w54XxuZ2TBdfGbh56nlRt9X8P3AYWVsIc2iMgGn6dQmm2sfe72pL59rZqicD+7szBxmHHfDRfHyff2PQzfBM6wBx1UiW0R0UH4PIUi4FuI4pNF1rqushpJR0hL1hS/emdSbwCS46EGvti+KrNKVAtuEtEaAE9KZaOehnywIPUn3RXo9eT45FFrlUCQ9mdmADcTUZ5aMqgd3X4cwGqpcH4v7aRH5yRsVlmGqGHZgyk/mAw0THboCSJa3WyFMKCqAhARA7gZQEDDZ002Tb7ywtgf1JQjGlg8N3HTkDTdZNmhNQCeUFsO1fNbiKgGPqNQ6uM0T95oOb+/VXtCbVkixWVjY7Kvy4qRv/x8AL/xj5pUJSIJTkR0CMAc+BcuJiDpsyVW7U9BCaaOMO79y02JQ1DvhrfBF96NSMJhRBdIZebFAP4cKAMV76y1/fjXtbasaN+1LFQMOrI/fXPizotHGieh3uIX4Zu3/1ULVcNKpBWAAKyCb+5hAK/IxbsPuQ7vOuzSniz3GEWxcyqDUU/eAVaNY+JwIw3urRtJFNiXSeIPRPRURITzE/F/LDPrAXwGYGakZVGZF4hoQeuXhZeI773mn8xwPYCn4V+rsItTAeD2aHj5QBS0AHKYeRB8HsOrAAwAkBhZiRSB4ZuufQi+ZXk/Dldotz38PwEcvJwQWr+sAAAAAElFTkSuQmCC;" vertex="1" parent="1">
          <mxGeometry x="339.35" y="182.5" width="20.65" height="20" as="geometry" />
        </mxCell>
        <mxCell id="nXT7cmKq0sEsVXdaDgDs-24" value="" style="endArrow=classic;html=1;rounded=0;entryX=0.5;entryY=0;entryDx=0;entryDy=0;exitX=0;exitY=0.75;exitDx=0;exitDy=0;dashed=1;" edge="1" parent="1" source="hgtoQCEPwnBt9p70s2Xu-32" target="hgtoQCEPwnBt9p70s2Xu-42">
          <mxGeometry width="50" height="50" relative="1" as="geometry">
            <mxPoint x="250" y="90" as="sourcePoint" />
            <mxPoint x="370" y="89" as="targetPoint" />
            <Array as="points">
              <mxPoint x="350" y="120" />
            </Array>
          </mxGeometry>
        </mxCell>
        <mxCell id="nXT7cmKq0sEsVXdaDgDs-25" value="fetch function&amp;nbsp;&lt;br&gt;information" style="edgeLabel;html=1;align=center;verticalAlign=middle;resizable=0;points=[];" vertex="1" connectable="0" parent="nXT7cmKq0sEsVXdaDgDs-24">
          <mxGeometry x="0.1435" relative="1" as="geometry">
            <mxPoint y="5" as="offset" />
          </mxGeometry>
        </mxCell>
      </root>
    </mxGraphModel>
  </diagram>
</mxfile>
